<?xml version="1.0" encoding="UTF-8" standalone="no"?><!DOCTYPE svg PUBLIC "-//W3C//DTD SVG 1.1//EN" "http://www.w3.org/Graphics/SVG/1.1/DTD/svg11.dtd"><svg width="100%" height="100%" viewBox="0 0 17363 17363" version="1.1" xmlns="http://www.w3.org/2000/svg" xmlns:xlink="http://www.w3.org/1999/xlink" xml:space="preserve" xmlns:serif="http://www.serif.com/" style="fill-rule:evenodd;clip-rule:evenodd;stroke-linejoin:round;stroke-miterlimit:2;"><path id="android" d="M5312.12,10179.3c352.254,-0 623.613,-287.742 623.613,-623.613c-0.001,-335.871 -272.38,-623.616 -623.613,-623.616c-335.871,-0 -608.254,287.745 -608.254,623.616c-0,335.871 272.383,623.613 608.254,623.613Zm6752.25,-0c335.871,-0 608.254,-287.742 608.254,-623.613c0,-335.871 -272.383,-623.616 -608.254,-623.616c-352.254,-0 -623.612,287.745 -623.612,623.616c-0.001,335.871 272.383,623.613 623.612,623.613Zm256,-3231.73c2240.5,1152 3760.11,3359.73 3760.11,5904.38l-14799.8,0c-0,-2543.61 1519.61,-4752.38 3775.47,-5904.38l-1135.61,-2096.12c-64.512,-111.617 -31.746,-256 79.871,-320.513c111.617,-48.125 256,-16.383 320.508,96.259l1152,2112.5c975.871,-432.125 2064.38,-671.742 3216.37,-671.742c1152,-0 2240.5,239.617 3216.37,671.742l1152,-2112.5c64.512,-111.617 207.871,-144.384 320.512,-96.259c111.613,64.513 144.384,207.871 79.871,320.513l-1137.66,2096.12l-0.021,0Z" style="fill:#fefefe;fill-rule:nonzero;"/></svg>