<?xml version="1.0" encoding="UTF-8" standalone="no"?><!DOCTYPE svg PUBLIC "-//W3C//DTD SVG 1.1//EN" "http://www.w3.org/Graphics/SVG/1.1/DTD/svg11.dtd"><svg width="100%" height="100%" viewBox="0 0 4167 4167" version="1.1" xmlns="http://www.w3.org/2000/svg" xmlns:xlink="http://www.w3.org/1999/xlink" xml:space="preserve" xmlns:serif="http://www.serif.com/" style="fill-rule:evenodd;clip-rule:evenodd;stroke-linejoin:round;stroke-miterlimit:2;"><path id="android" d="M1274.91,2443.03c84.541,0 149.667,-69.058 149.667,-149.667c0,-80.609 -65.371,-149.668 -149.667,-149.668c-80.609,0 -145.981,69.059 -145.981,149.668c0,80.609 65.372,149.667 145.981,149.667Zm1620.54,0c80.609,0 145.981,-69.058 145.981,-149.667c0,-80.609 -65.372,-149.668 -145.981,-149.668c-84.541,0 -149.667,69.059 -149.667,149.668c0,80.609 65.372,149.667 149.667,149.667Zm61.44,-775.616c537.72,276.479 902.427,806.336 902.427,1417.05l-3551.95,0c0,-610.466 364.706,-1140.57 906.113,-1417.05l-272.546,-503.068c-15.483,-26.788 -7.619,-61.44 19.169,-76.923c26.788,-11.55 61.44,-3.932 76.922,23.102l276.479,507c234.209,-103.71 495.45,-161.218 771.929,-161.218c276.479,0 537.721,57.508 771.929,161.218l276.479,-507c15.483,-26.788 49.889,-34.652 76.923,-23.102c26.787,15.483 34.652,49.889 19.169,76.923l-273.038,503.068Z" style="fill:#222;fill-rule:nonzero;"/></svg>