<?xml version="1.0" encoding="UTF-8" standalone="no"?><!DOCTYPE svg PUBLIC "-//W3C//DTD SVG 1.1//EN" "http://www.w3.org/Graphics/SVG/1.1/DTD/svg11.dtd"><svg width="100%" height="100%" viewBox="0 0 100 100" version="1.1" xmlns="http://www.w3.org/2000/svg" xmlns:xlink="http://www.w3.org/1999/xlink" xml:space="preserve" xmlns:serif="http://www.serif.com/" style="fill-rule:evenodd;clip-rule:evenodd;stroke-linejoin:round;stroke-miterlimit:2;"><path d="M74.667,48.417c-0.199,-0.512 -0.496,-0.979 -0.875,-1.375l-20.834,-20.834c-0.784,-0.784 -1.849,-1.225 -2.958,-1.225c-2.295,-0 -4.184,1.889 -4.184,4.184c0,1.109 0.441,2.174 1.226,2.958l13.75,13.708l-31.625,0c-2.286,0 -4.167,1.881 -4.167,4.167c0,2.286 1.881,4.167 4.167,4.167l31.625,-0l-13.75,13.708c-0.789,0.782 -1.233,1.848 -1.233,2.958c0,1.111 0.444,2.177 1.233,2.959c0.782,0.788 1.847,1.232 2.958,1.232c1.111,0 2.176,-0.444 2.958,-1.232l20.834,-20.834c0.379,-0.396 0.676,-0.863 0.875,-1.375c0.416,-1.014 0.416,-2.152 -0,-3.166Z" style="fill:#fff;fill-rule:nonzero;"/></svg>