<?xml version="1.0" encoding="UTF-8" standalone="no"?><!DOCTYPE svg PUBLIC "-//W3C//DTD SVG 1.1//EN" "http://www.w3.org/Graphics/SVG/1.1/DTD/svg11.dtd"><svg width="100%" height="100%" viewBox="0 0 134 134" version="1.1" xmlns="http://www.w3.org/2000/svg" xmlns:xlink="http://www.w3.org/1999/xlink" xml:space="preserve" xmlns:serif="http://www.serif.com/" style="fill-rule:evenodd;clip-rule:evenodd;stroke-linejoin:round;stroke-miterlimit:2;"><path d="M4.167,28.125l0,77.083l37.239,0c3.451,0 27.214,-0.7 27.214,-22.395c0,-13.558 -9.326,-18.165 -14.063,-19.532c3.483,-1.644 10.417,-5.55 10.417,-16.015c0,-5.827 -0.83,-19.141 -24.609,-19.141l-36.198,0Zm84.896,7.161l-0.001,7.032l28.777,0l0,-7.032l-28.776,0Zm-67.969,5.99l15.885,0c1.498,0 11.589,-0.797 11.589,8.854c0,8.252 -7.292,9.115 -10.287,9.115l-17.187,0l0,-17.969Zm83.073,7.422c-21.761,0 -26.302,18.896 -26.302,27.083c0,24.3 19.921,27.084 26.302,27.084c17.203,0 22.086,-11.133 24.088,-17.318l-12.5,0c-0.488,1.595 -4.134,6.771 -11.067,6.771c-11.622,0 -12.631,-9.082 -12.631,-13.151l36.979,0c0.749,-14.063 -5.403,-30.469 -24.869,-30.469Zm-0.391,10.547c3.467,0 6.266,1.009 7.943,2.864c1.676,1.872 2.913,4.606 3.255,8.203l-22.917,0c0.065,-0.992 0.293,-2.132 0.651,-3.385c0.358,-1.286 0.912,-2.506 1.823,-3.646c0.912,-1.123 2.181,-2.099 3.646,-2.864c1.497,-0.782 3.353,-1.172 5.599,-1.172Zm-82.682,11.588l18.359,0c3.646,0 12.24,0.57 12.24,11.068c0,10.173 -10.824,10.156 -12.5,10.156l-18.099,0l0,-21.224Z" style="fill:url(#_Linear1);fill-rule:nonzero;"/><defs><linearGradient id="_Linear1" x1="0" y1="0" x2="1" y2="0" gradientUnits="userSpaceOnUse" gradientTransform="matrix(124.93,0,0,77.0833,4.16667,66.6667)"><stop offset="0" style="stop-color:#4c008f;stop-opacity:1"/><stop offset="0.58" style="stop-color:#0c55c1;stop-opacity:1"/><stop offset="1" style="stop-color:#00a6df;stop-opacity:1"/></linearGradient></defs></svg>