<?xml version="1.0" encoding="UTF-8" standalone="no"?><!DOCTYPE svg PUBLIC "-//W3C//DTD SVG 1.1//EN" "http://www.w3.org/Graphics/SVG/1.1/DTD/svg11.dtd"><svg width="100%" height="100%" viewBox="0 0 100 100" version="1.1" xmlns="http://www.w3.org/2000/svg" xmlns:xlink="http://www.w3.org/1999/xlink" xml:space="preserve" xmlns:serif="http://www.serif.com/" style="fill-rule:evenodd;clip-rule:evenodd;stroke-linejoin:round;stroke-miterlimit:2;"><path d="M83.625,26.458l-21.125,0l0,5.875l21.208,0l-0.083,-5.875Zm-4.458,40.417c-1.603,1.062 -3.496,1.601 -5.417,1.542c-2.57,0.268 -5.139,-0.548 -7.083,-2.25c-1.779,-2.017 -2.706,-4.648 -2.584,-7.334l27.584,0c0.198,-2.797 -0.04,-5.609 -0.709,-8.333c-0.646,-2.592 -1.777,-5.037 -3.333,-7.208c-1.566,-2.106 -3.589,-3.83 -5.917,-5.042c-2.589,-1.277 -5.446,-1.92 -8.333,-1.875c-2.715,-0.02 -5.407,0.504 -7.917,1.542c-2.298,0.968 -4.38,2.385 -6.125,4.166c-1.74,1.817 -3.087,3.973 -3.958,6.334c-0.935,2.548 -1.4,5.244 -1.375,7.958c-0.043,2.752 0.409,5.49 1.333,8.083c0.786,2.348 2.032,4.516 3.667,6.375c1.691,1.826 3.77,3.25 6.083,4.167c2.58,0.983 5.324,1.464 8.084,1.417c3.872,0.12 7.696,-0.894 11,-2.917c3.336,-2.371 5.74,-5.836 6.791,-9.792l-9.208,0c-0.493,1.309 -1.4,2.421 -2.583,3.167Zm-14.292,-17.167c0.655,-2.099 2.17,-3.826 4.167,-4.75c1.308,-0.588 2.732,-0.873 4.166,-0.833c2.095,-0.179 4.167,0.568 5.667,2.042c1.416,1.733 2.324,3.824 2.625,6.041l-17.292,0c0.068,-0.846 0.221,-1.684 0.459,-2.5l0.208,0Zm-22.042,-2c2.121,-0.883 3.964,-2.323 5.334,-4.166c1.259,-1.958 1.884,-4.258 1.791,-6.584c0.082,-2.121 -0.332,-4.233 -1.208,-6.166c-0.736,-1.676 -1.918,-3.117 -3.417,-4.167c-1.589,-1.092 -3.393,-1.831 -5.291,-2.167c-2.247,-0.471 -4.538,-0.694 -6.834,-0.666l-24.875,-0l0,52.416l25.417,0c2.32,0.002 4.63,-0.292 6.875,-0.875c2.128,-0.55 4.144,-1.467 5.958,-2.708c1.757,-1.218 3.189,-2.849 4.167,-4.75c1.083,-2.126 1.613,-4.49 1.542,-6.875c0.079,-2.955 -0.751,-5.864 -2.375,-8.333c-1.747,-2.483 -4.341,-4.247 -7.292,-4.959l0.208,0Zm-22.958,-14.958l10.792,0c0.991,-0.001 1.981,0.082 2.958,0.25c0.9,0.133 1.764,0.445 2.542,0.917c0.751,0.425 1.36,1.063 1.75,1.833c0.482,0.924 0.712,1.959 0.666,3c0.158,1.818 -0.572,3.604 -1.958,4.792c-1.491,1.025 -3.276,1.537 -5.083,1.458l-11.667,0l0,-12.25Zm20.167,31c-0.428,0.849 -1.076,1.569 -1.875,2.083c-0.832,0.518 -1.749,0.885 -2.709,1.084c-1.066,0.238 -2.157,0.35 -3.25,0.333l-12.5,0l0,-14.375l12.5,0c2.145,-0.094 4.264,0.505 6.042,1.708c1.628,1.461 2.465,3.615 2.25,5.792c0.113,1.145 -0.044,2.301 -0.458,3.375Z" style="fill:#fefefe;fill-rule:nonzero;"/></svg>