<?xml version="1.0" encoding="UTF-8" standalone="no"?><!DOCTYPE svg PUBLIC "-//W3C//DTD SVG 1.1//EN" "http://www.w3.org/Graphics/SVG/1.1/DTD/svg11.dtd"><svg width="100%" height="100%" viewBox="0 0 100 100" version="1.1" xmlns="http://www.w3.org/2000/svg" xmlns:xlink="http://www.w3.org/1999/xlink" xml:space="preserve" xmlns:serif="http://www.serif.com/" style="fill-rule:evenodd;clip-rule:evenodd;stroke-linejoin:round;stroke-miterlimit:2;"><path d="M30.917,64.75c-1.605,1.614 -1.605,4.261 -0,5.875c0.782,0.788 1.847,1.232 2.958,1.232c1.111,0 2.176,-0.444 2.958,-1.232c1.605,-1.614 1.605,-4.261 0,-5.875c-0.782,-0.788 -1.847,-1.232 -2.958,-1.232c-1.111,-0 -2.176,0.444 -2.958,1.232Zm-0,-35.375c-1.605,1.614 -1.605,4.261 -0,5.875c0.782,0.788 1.847,1.232 2.958,1.232c1.111,0 2.176,-0.444 2.958,-1.232c1.605,-1.614 1.605,-4.261 0,-5.875c-0.782,-0.788 -1.847,-1.232 -2.958,-1.232c-1.111,-0 -2.176,0.444 -2.958,1.232Zm20.625,41.667c-2.286,-0 -4.167,1.881 -4.167,4.166c0,2.286 1.881,4.167 4.167,4.167c2.285,0 4.166,-1.881 4.166,-4.167c0.004,-0.069 0.006,-0.139 0.006,-0.208c-0,-2.286 -1.881,-4.167 -4.167,-4.167c-0.002,0 -0.004,0 -0.005,0l-0,0.209Zm-25,-25c-2.286,-0 -4.167,1.881 -4.167,4.166c0,2.286 1.881,4.167 4.167,4.167c2.285,-0 4.166,-1.881 4.166,-4.167c0.004,-0.069 0.006,-0.139 0.006,-0.208c-0,-2.286 -1.881,-4.167 -4.167,-4.167c-0.002,0 -0.004,0 -0.005,0l-0,0.209Zm25,-25c-2.286,-0 -4.167,1.881 -4.167,4.166c0,2.286 1.881,4.167 4.167,4.167c2.285,-0 4.166,-1.881 4.166,-4.167c0.004,-0.069 0.006,-0.139 0.006,-0.208c-0,-2.286 -1.881,-4.167 -4.167,-4.167c-0.002,0 -0.004,0 -0.005,0l-0,0.209Zm14.75,8.541c-0.787,0.782 -1.229,1.846 -1.229,2.955c-0,2.286 1.88,4.167 4.166,4.167c2.286,0 4.167,-1.881 4.167,-4.167c-0,-1.109 -0.443,-2.173 -1.229,-2.955c-1.557,-1.663 -4.205,-1.757 -5.875,-0.208l-0,0.208Zm26.25,0c-7.753,-15.499 -23.661,-25.328 -40.991,-25.328c-25.144,-0 -45.834,20.69 -45.834,45.833c0,25.143 20.69,45.833 45.834,45.833c2.778,0 5.55,-0.252 8.282,-0.754c4.253,-0.801 8.009,-3.28 10.417,-6.875c2.594,-3.909 3.511,-8.702 2.542,-13.292c-0.263,-1.374 -0.402,-2.768 -0.417,-4.167c0.037,-8.234 4.953,-15.706 12.5,-19c4.031,-1.805 7.14,-5.2 8.583,-9.375c1.459,-4.264 1.128,-8.942 -0.916,-12.958l-0,0.083Zm-7.084,10.167c-0.718,2.014 -2.222,3.653 -4.166,4.542c-10.45,4.677 -17.219,15.093 -17.25,26.541c0.006,1.959 0.201,3.913 0.583,5.834c0.514,2.371 0.048,4.852 -1.292,6.875c-1.134,1.772 -2.967,2.983 -5.041,3.333c-2.226,0.418 -4.486,0.627 -6.75,0.625c-0.006,0 -0.012,0 -0.018,0c-20.572,0 -37.5,-16.928 -37.5,-37.5c-0,-0.389 0.006,-0.778 0.018,-1.167c0.666,-19.301 16.058,-35.128 35.333,-36.333l2.125,0c14.22,0.004 27.263,8.095 33.583,20.833c0.955,1.979 1.09,4.256 0.375,6.334l0,0.083Zm-33.916,6.083c-2.286,0 -4.167,1.881 -4.167,4.167c0,2.286 1.881,4.167 4.167,4.167c2.285,-0 4.166,-1.881 4.166,-4.167c0,-2.286 -1.881,-4.167 -4.166,-4.167Z" style="fill:#fefefe;fill-rule:nonzero;"/></svg>