<?xml version="1.0" encoding="UTF-8" standalone="no"?><!DOCTYPE svg PUBLIC "-//W3C//DTD SVG 1.1//EN" "http://www.w3.org/Graphics/SVG/1.1/DTD/svg11.dtd"><svg width="100%" height="100%" viewBox="0 0 4167 4167" version="1.1" xmlns="http://www.w3.org/2000/svg" xmlns:xlink="http://www.w3.org/1999/xlink" xml:space="preserve" xmlns:serif="http://www.serif.com/" style="fill-rule:evenodd;clip-rule:evenodd;stroke-linejoin:round;stroke-miterlimit:2;"><path id="eercast" d="M2866.41,1885.9c61.619,-95.075 -10.589,-336.143 -225.297,-478.757c-213.019,-142.613 -485.741,-132.024 -549.162,-36.948c-61.619,93.273 70.405,33.456 311.586,123.237c397.762,147.908 401.367,487.544 462.873,392.468Zm638.943,1010.35c-498.132,1225.05 -2742.32,915.27 -2694.78,-674.09c5.294,-202.429 61.619,-337.946 119.633,-531.589c-371.403,1520.76 1700.32,2406.06 2550.48,1205.68c31.654,-44.046 40.441,-40.441 24.67,0Zm-420.63,-790.343c0,498.132 -401.367,902.991 -895.894,902.991c-494.528,0 -895.895,-404.859 -895.895,-902.991c0,-498.132 401.367,-902.992 895.895,-902.992c494.527,0 895.894,404.86 895.894,902.992Zm505.117,-506.919c-626.665,-1422.19 -3213.98,-897.697 -2927.06,1036.7c-594.898,-1937.89 1856.9,-2826.8 2763.38,-1446.86c73.898,112.649 158.384,309.784 163.679,410.154Zm-109.157,601.994c29.965,-594.897 -381.991,-1001.56 -938.138,-1154.65c-8.786,0 -47.537,-15.884 24.67,-22.868c1358.88,45.736 1408.11,2217.83 -72.207,2242.38c482.248,-133.827 955.711,-468.168 985.675,-1064.87Z" style="fill:#222;fill-rule:nonzero;"/></svg>