<svg xmlns="http://www.w3.org/2000/svg" viewBox="0 0 128 128" width="64px" height="64px"><path fill="#fff" d="M64,8.8L64,8.8c-13.9,8-22.5,22.9-22.5,39v0l0,0c13.9,8,31.1,8,45,0l0,0v0C86.5,31.7,77.9,16.8,64,8.8L64,8.8z"/><path fill="#fff" d="M64,8.8L64,8.8c-13.9,8-22.5,22.9-22.5,39v0l0,0c13.9,8,31.1,8,45,0l0,0v0C86.5,31.7,77.9,16.8,64,8.8L64,8.8z"/><path fill="#c3dbea" d="M64,8.8c-0.2,0.1-0.4,0.3-0.6,0.4c2.4,6,3.8,12.8,3.8,20c0,9.1-2.2,17.5-5.9,24.5c8.7,0.5,17.4-1.5,25.2-5.9v0C86.5,31.7,77.9,16.8,64,8.8z"/><path fill="#fff" d="M64,26.1c-10,8.7-10.8,26.6-10.8,42.6v0l0,0c10.8,6.7,21.7,0,21.7,0l0,0v0C74.8,52.6,75.4,36.6,64,26.1L64,26.1z"/><path fill="#3f4a54" d="M41.5,50.7c1.7,0,3-1.3,3-3c0-14.4,7.4-27.8,19.5-35.5c12.1,7.7,19.5,21.1,19.5,35.5c0,1.7,1.3,3,3,3s3-1.3,3-3c0-17.1-9.2-33-24-41.6c-0.9-0.5-2.1-0.5-3,0c-14.8,8.5-24,24.5-24,41.6C38.5,49.4,39.8,50.7,41.5,50.7z"/><path fill="#3f4a54" d="M57.1 43.4c.3-1.6-.7-3.2-2.3-3.6-1.6-.3-3.2.7-3.6 2.3-2.9 13.6-1.1 26.5-1.1 27 0 0 0 .1 0 .1 0 .1 0 .2.1.3 0 .1.1.2.1.3 0 .1.1.2.1.2 0 .1.1.2.2.3 0 .1.1.1.1.2.1.1.1.2.2.2.1.1.1.1.2.2.1.1.2.2.3.2 0 0 .1.1.1.1.3.2 5.7 3.6 12.9 3.6 3.7 0 7.9-.9 12-3.6.7-.5 1.2-1.2 1.4-2.1C78 68 81.7 40 68.3 23.2c-1-1.3-2.9-1.5-4.2-.5-1.3 1-1.5 2.9-.5 4.2 10.2 12.8 8.9 34.2 8.4 39.9-6.8 3.6-13.4 1.2-16.1-.1C55.6 63.2 55 53.4 57.1 43.4zM54 77.7A3 3 0 1 0 54 83.7 3 3 0 1 0 54 77.7zM74 77.7A3 3 0 1 0 74 83.7 3 3 0 1 0 74 77.7zM32 108.3c9.9 0 18-8.1 18-18 0-1.7-1.3-3-3-3s-3 1.3-3 3c0 6.6-5.4 12-12 12-1.7 0-3 1.3-3 3S30.3 108.3 32 108.3zM84 90.3c0-1.7-1.3-3-3-3s-3 1.3-3 3c0 9.9 8.1 18 18 18 1.7 0 3-1.3 3-3s-1.3-3-3-3C89.4 102.3 84 96.9 84 90.3zM40.4 116.5c-1.5.7-2.1 2.5-1.3 4 .5 1.1 1.6 1.7 2.7 1.7.5 0 .9-.1 1.3-.3 11.1-5.5 17.9-16.6 17.9-29 0-1.7-1.3-3-3-3s-3 1.3-3 3C55 103 49.4 112 40.4 116.5zM67 92.9c0 12.4 6.9 23.5 17.9 29 .4.2.9.3 1.3.3 1.1 0 2.2-.6 2.7-1.7.7-1.5.1-3.3-1.3-4C78.6 112 73 103 73 92.9c0-1.7-1.3-3-3-3S67 91.3 67 92.9z"/></svg>