<?xml version="1.0" encoding="UTF-8" standalone="no"?><!DOCTYPE svg PUBLIC "-//W3C//DTD SVG 1.1//EN" "http://www.w3.org/Graphics/SVG/1.1/DTD/svg11.dtd"><svg width="100%" height="100%" viewBox="0 0 200 200" version="1.1" xmlns="http://www.w3.org/2000/svg" xmlns:xlink="http://www.w3.org/1999/xlink" xml:space="preserve" xmlns:serif="http://www.serif.com/" style="fill-rule:evenodd;clip-rule:evenodd;stroke-linejoin:round;stroke-miterlimit:2;"><path d="M100,20.833c-43.43,0 -79.167,35.737 -79.167,79.167c0,43.43 35.737,79.167 79.167,79.167c43.43,0 79.167,-35.737 79.167,-79.167c0,-43.43 -35.737,-79.167 -79.167,-79.167Z" style="fill:url(#_Linear1);fill-rule:nonzero;"/><path d="M110.717,120.983l20.487,0l3.217,-20.812l-23.709,0l0,-11.375c0,-8.646 2.825,-16.313 10.913,-16.313l12.996,0l0,-18.162c-2.284,-0.308 -7.113,-0.983 -16.238,-0.983c-19.054,-0.001 -30.225,10.062 -30.225,32.987l0,13.846l-19.587,0l0,20.812l19.587,0l0,57.205c3.879,0.583 7.809,0.979 11.842,0.979c3.646,0 7.204,-0.334 10.717,-0.809l0,-57.375Z" style="fill:#fff;fill-rule:nonzero;"/><defs><linearGradient id="_Linear1" x1="0" y1="0" x2="1" y2="0" gradientUnits="userSpaceOnUse" gradientTransform="matrix(184.562,-191.398,191.398,184.562,15.4378,191.398)"><stop offset="0" style="stop-color:#4c008f;stop-opacity:1"/><stop offset="0.58" style="stop-color:#0c55c1;stop-opacity:1"/><stop offset="1" style="stop-color:#00a6df;stop-opacity:1"/></linearGradient></defs></svg>