<?xml version="1.0" encoding="UTF-8" standalone="no"?>
<!DOCTYPE svg PUBLIC "-//W3C//DTD SVG 1.1//EN" "http://www.w3.org/Graphics/SVG/1.1/DTD/svg11.dtd">
<svg width="100%" height="100%" viewBox="0 0 100 100" version="1.1" xmlns="http://www.w3.org/2000/svg" xmlns:xlink="http://www.w3.org/1999/xlink" xml:space="preserve" xmlns:serif="http://www.serif.com/" style="fill-rule:evenodd;clip-rule:evenodd;stroke-linejoin:round;stroke-miterlimit:2;">
    <path d="M51,4L51.882,4.026L52.527,4.077L53.166,4.156L53.799,4.261L54.426,4.392L55.046,4.549L55.471,4.673L56.081,4.873L56.684,5.098L57.278,5.348L58.239,5.81L58.89,6.167L59.563,6.574L60.374,7.119L61.064,7.634L61.885,8.31L62.726,9.081L63.42,9.785L64.006,10.429L64.763,11.339L65.396,12.175L65.893,12.886L66.468,13.777L66.604,13.999L67.123,14.894L67.44,15.481L67.951,16.502L68.208,17.056L68.645,18.074L69.03,19.065L69.294,19.811L69.635,20.866L69.901,21.792L70.168,22.84L70.425,24.014L70.46,24.187C80.36,22.027 89.786,24.814 93.931,31.994C99.034,40.833 94.371,53.273 83.526,61.036C86.912,75.152 81.358,88.671 70.865,91.483C63.883,93.354 56.425,90.026 51,83.489C45.575,90.026 38.117,93.354 31.135,91.483C20.642,88.671 15.088,75.152 18.474,61.036C7.629,53.273 2.966,40.833 8.069,31.994C12.214,24.814 21.64,22.027 31.54,24.187L31.782,23.051L32.031,22.046L32.365,20.866L32.508,20.41L32.863,19.361L33.08,18.772L33.503,17.719L33.792,17.056L34.259,16.072L34.733,15.156L35.095,14.508L35.63,13.62L35.983,13.072L36.657,12.103L37.295,11.266L37.834,10.614L38.624,9.738L39.354,9.004L39.775,8.612L40.634,7.874L41.412,7.274L42.067,6.815L42.81,6.343L43.457,5.972L44.159,5.609L44.747,5.337L45.342,5.088L45.945,4.864L46.554,4.665L47.171,4.491L47.795,4.343L48.424,4.22L49.06,4.125L49.701,4.056L50.348,4.014L51,4ZM51,51.778L51.099,51.551L51.527,50.501L52.098,48.966L52.188,48.706L52.63,47.356L53.145,45.532L53.438,44.275C53.616,43.429 53.754,42.571 53.829,41.738L53.856,41.388L53.889,40.517L53.844,39.453L53.731,38.659L53.564,37.995C53.218,36.879 52.566,36.001 51.487,35.532L51,35.357L50.513,35.532C49.434,36.001 48.782,36.88 48.436,37.995L48.357,38.271L48.218,38.95L48.138,39.67L48.111,40.56L48.171,41.738C48.246,42.571 48.384,43.429 48.562,44.275C48.593,44.42 48.624,44.564 48.657,44.708L48.758,45.143L49.105,46.462L49.64,48.198L50.175,49.72L50.537,50.663L51,51.778L51,51.778L51,51.778L51,51.778L50.992,51.77C50.831,51.596 48.201,48.781 45.067,46.579C41.831,44.306 38.058,42.687 35.909,45.302L35.907,45.322C35.51,48.668 39.275,50.282 43.144,51.06C47.018,51.838 50.996,51.778 51,51.778L50.99,51.784C50.782,51.897 47.402,53.746 44.491,56.236C41.487,58.807 38.982,62.06 40.982,64.79L41,64.798C44.143,66.012 46.641,62.765 48.354,59.211C50.069,55.654 50.997,51.79 51,51.778C51.003,51.79 51.931,55.654 53.646,59.211C55.359,62.765 57.857,66.012 61,64.798L61.018,64.79C63.018,62.06 60.513,58.807 57.509,56.236C54.598,53.746 51.218,51.897 51.01,51.784L51,51.778C51.004,51.778 54.982,51.838 58.856,51.06C62.725,50.282 66.49,48.668 66.093,45.322L66.091,45.302C63.942,42.687 60.169,44.306 56.933,46.579C53.799,48.781 51.169,51.596 51.008,51.77L51,51.778L51,51.778Z" style="fill:rgb(254,254,254);"/>
</svg>
