<?xml version="1.0" encoding="UTF-8" standalone="no"?><!DOCTYPE svg PUBLIC "-//W3C//DTD SVG 1.1//EN" "http://www.w3.org/Graphics/SVG/1.1/DTD/svg11.dtd"><svg width="100%" height="100%" viewBox="0 0 267 267" version="1.1" xmlns="http://www.w3.org/2000/svg" xmlns:xlink="http://www.w3.org/1999/xlink" xml:space="preserve" xmlns:serif="http://www.serif.com/" style="fill-rule:evenodd;clip-rule:evenodd;stroke-linejoin:round;stroke-miterlimit:2;"><path id="github" d="M133.323,15.464c66.716,0 120.844,54.128 120.844,120.844c0,53.342 -34.612,98.658 -82.607,114.71c-6.133,1.098 -8.338,-2.678 -8.338,-5.82c0,-3.938 0.161,-16.989 0.161,-33.202c0,-11.329 -3.776,-18.57 -8.177,-22.346c26.908,-2.991 55.225,-13.222 55.225,-59.636c0,-13.223 -4.723,-23.917 -12.426,-32.416c1.258,-3.152 5.347,-15.418 -1.259,-32.094c-10.07,-3.152 -33.202,12.426 -33.202,12.426c-9.597,-2.678 -19.979,-4.088 -30.211,-4.088c-10.231,0 -20.614,1.42 -30.211,4.088c0,0 -23.131,-15.578 -33.201,-12.426c-6.606,16.676 -2.518,28.952 -1.259,32.094c-7.714,8.499 -12.427,19.193 -12.427,32.416c0,46.263 28.167,56.645 55.075,59.636c-3.465,3.152 -6.606,8.499 -7.714,16.203c-6.929,3.152 -24.552,8.499 -35.085,-10.07c-6.606,-11.49 -18.57,-12.427 -18.57,-12.427c-11.802,-0.161 -0.785,7.392 -0.785,7.392c7.865,3.615 13.373,17.623 13.373,17.623c7.08,21.56 40.755,14.32 40.755,14.32c0,10.07 0.161,19.506 0.161,22.497c0,3.152 -2.206,6.928 -8.338,5.82c-47.995,-16.052 -82.607,-61.368 -82.607,-114.71c0,-66.716 54.128,-120.844 120.843,-120.844l-0.02,0.01Zm-75.054,173.552c0.313,-0.635 -0.161,-1.42 -1.097,-1.884c-0.947,-0.312 -1.732,-0.161 -2.044,0.313c-0.313,0.634 0.161,1.42 1.097,1.883c0.786,0.473 1.732,0.312 2.044,-0.312Zm4.874,5.357c0.635,-0.473 0.474,-1.571 -0.312,-2.518c-0.785,-0.785 -1.883,-1.097 -2.517,-0.473c-0.635,0.473 -0.474,1.571 0.312,2.518c0.785,0.785 1.883,1.097 2.517,0.473Zm4.723,7.079c0.786,-0.634 0.786,-1.883 0,-2.991c-0.634,-1.097 -1.883,-1.57 -2.678,-0.946c-0.786,0.473 -0.786,1.732 0,2.83c0.785,1.097 2.044,1.571 2.678,1.097l0,0.01Zm6.607,6.606c0.634,-0.634 0.312,-2.044 -0.635,-2.99c-1.098,-1.098 -2.517,-1.259 -3.152,-0.474c-0.785,0.635 -0.473,2.045 0.635,2.991c1.097,1.098 2.517,1.259 3.152,0.473Zm8.972,3.938c0.312,-0.947 -0.634,-2.044 -2.044,-2.518c-1.259,-0.312 -2.679,0.162 -2.991,1.098c-0.312,0.937 0.634,2.044 2.044,2.356c1.259,0.474 2.679,0 2.991,-0.946l0,0.01Zm9.909,0.785c0,-1.097 -1.258,-1.883 -2.678,-1.732c-1.42,0 -2.518,0.786 -2.518,1.732c0,1.098 1.098,1.884 2.679,1.733c1.42,0 2.517,-0.786 2.517,-1.733Zm9.124,-1.571c-0.161,-0.946 -1.42,-1.57 -2.83,-1.419c-1.42,0.312 -2.356,1.258 -2.205,2.356c0.161,0.947 1.42,1.571 2.83,1.259c1.409,-0.312 2.356,-1.259 2.205,-2.206l0,0.01Z" style="fill:url(#_Linear1);fill-rule:nonzero;"/><defs><linearGradient id="_Linear1" x1="0" y1="0" x2="1" y2="0" gradientUnits="userSpaceOnUse" gradientTransform="matrix(241.667,0,0,235.758,12.5,133.333)"><stop offset="0" style="stop-color:#4c008f;stop-opacity:1"/><stop offset="0.58" style="stop-color:#0c55c1;stop-opacity:1"/><stop offset="1" style="stop-color:#00a6df;stop-opacity:1"/></linearGradient></defs></svg>