<?xml version="1.0" encoding="UTF-8"?>
<svg xmlns="http://www.w3.org/2000/svg" xmlns:xlink="http://www.w3.org/1999/xlink" width="144pt" height="144pt" viewBox="0 0 144 144" version="1.1">
<g id="surface30783750">
<path style=" stroke:none;fill-rule:nonzero;fill:rgb(100%,100%,100%);fill-opacity:1;" d="M 118.5 129 L 91.5 129 C 87.355469 129 84 125.644531 84 121.5 L 84 94.5 C 84 91.183594 81.316406 88.5 78 88.5 L 66 88.5 C 62.683594 88.5 60 91.183594 60 94.5 L 60 121.5 C 60 125.644531 56.644531 129 52.5 129 L 25.5 129 C 21.355469 129 18 125.644531 18 121.5 L 18 64.238281 C 18 57.34375 21.160156 50.824219 26.578125 46.558594 L 69.214844 12.964844 C 70.847656 11.679688 73.152344 11.679688 74.785156 12.964844 L 117.425781 46.558594 C 122.839844 50.824219 126 57.339844 126 64.234375 L 126 121.5 C 126 125.644531 122.644531 129 118.5 129 Z M 118.5 129 "/>
</g>
</svg>
