<svg xmlns="http://www.w3.org/2000/svg" viewBox="0 0 128 128" width="64px" height="64px"><path fill="#FFF" d="M109.8,109.8H18.2c-5.1,0-9.2-4.1-9.2-9.2V27.3c0-5.1,4.1-9.2,9.2-9.2h91.7c5.1,0,9.2,4.1,9.2,9.2v73.3C119,105.7,114.9,109.8,109.8,109.8z"/><path fill="#DEDFE6" d="M39.7,110.5c-1.7,0-3-1.3-3-3V53.8c0-1.7,1.3-3,3-3s3,1.3,3,3v53.8C42.7,109.2,41.4,110.5,39.7,110.5z"/><path fill="#A8B2C6" d="M119,36.5H9v-9.2c0-5.1,4.1-9.2,9.2-9.2h91.7c5.1,0,9.2,4.1,9.2,9.2L119,36.5L119,36.5z"/><path fill="#DEDFE6" d="M57.8,50.3h44.4c1.7,0,3,1.3,3,3v12.3c0,1.7-1.3,3-3,3H57.8c-1.7,0-3-1.3-3-3V53.3C54.8,51.6,56.1,50.3,57.8,50.3z"/><path fill="#D3B3D5" d="M57.8,77.8h12.3c1.7,0,3,1.3,3,3v12.3c0,1.7-1.3,3-3,3H57.8c-1.7,0-3-1.3-3-3V80.8C54.8,79.1,56.1,77.8,57.8,77.8z"/><path fill="#464C55" d="M109.9,15.1H18.2C11.5,15.1,6,20.6,6,27.3v73.3c0,6.7,5.5,12.2,12.2,12.2h91.6c6.7,0,12.2-5.4,12.3-12.2V27.3C122.1,20.6,116.6,15.1,109.9,15.1z M12,27.4c0-3.4,2.8-6.2,6.2-6.2v-0.1h91.6c3.4,0,6.2,2.8,6.2,6.2v6.2H12V27.4z M109.9,106.9H18.2c-3.4,0-6.2-2.8-6.2-6.2V39.5h104.1v61.2C116.1,104.1,113.3,106.9,109.9,106.9z"/><path fill="#FFF" d="M20.5 30.8c-1.9 0-3.5-1.6-3.5-3.5s1.6-3.5 3.5-3.5 3.5 1.6 3.5 3.5C23.9 29.2 22.4 30.8 20.5 30.8zM29.6 30.8c-1.9 0-3.5-1.6-3.5-3.5s1.6-3.5 3.5-3.5 3.5 1.6 3.5 3.5C33.1 29.2 31.5 30.8 29.6 30.8z"/><g><path fill="#FFF" d="M38.8,30.8c-1.9,0-3.5-1.6-3.5-3.5s1.6-3.5,3.5-3.5s3.5,1.6,3.5,3.5C42.2,29.2,40.7,30.8,38.8,30.8z"/></g><g><path fill="#DEDFE6" d="M101.2 83.5H82.9c-1.7 0-3-1.3-3-3s1.3-3 3-3h18.3c1.7 0 3 1.3 3 3S102.9 83.5 101.2 83.5zM101.2 96.3H82.9c-1.7 0-3-1.3-3-3s1.3-3 3-3h18.3c1.7 0 3 1.3 3 3S102.9 96.3 101.2 96.3z"/></g></svg>