<?xml version="1.0" encoding="UTF-8" standalone="no"?><!DOCTYPE svg PUBLIC "-//W3C//DTD SVG 1.1//EN" "http://www.w3.org/Graphics/SVG/1.1/DTD/svg11.dtd"><svg width="100%" height="100%" viewBox="0 0 4167 4167" version="1.1" xmlns="http://www.w3.org/2000/svg" xmlns:xlink="http://www.w3.org/1999/xlink" xml:space="preserve" xmlns:serif="http://www.serif.com/" style="fill-rule:evenodd;clip-rule:evenodd;stroke-linejoin:round;stroke-miterlimit:2;"><path id="firefox" d="M2095.85,3646.57c-694.783,0 -1247.41,-406.778 -1501.2,-988.202c-284.433,-646.168 -57.601,-1681.26 448.251,-2138.38l-19.814,505.852c25.229,-32.372 217.846,-41.358 248.375,0c104.373,-199.76 440.993,-349.177 711.026,-354.592c-102.645,86.402 -340.191,401.364 -320.376,561.61c131.445,41.357 333.049,43.201 439.265,50.458c32.372,17.972 26.957,127.759 -37.786,217.847c0,0 -84.559,117.045 -313.235,158.403l26.958,340.191l-250.219,-120.616c-80.987,205.175 113.359,386.963 314.962,352.863c223.146,-37.786 302.405,-183.631 458.965,-174.646c154.831,8.986 216.004,95.388 196.189,176.374c0,0 -25.229,97.231 -192.618,80.987c-142.159,224.99 -331.206,323.948 -637.182,296.991c464.379,385.235 1090.85,36.058 1249.25,-279.019c158.403,-313.234 19.815,-779.456 -138.588,-910.787c187.203,80.987 316.806,163.817 385.235,345.606c36.059,-403.207 -149.416,-860.443 -480.622,-1128.63c622.782,181.788 1002.6,664.254 1013.43,1434.61c10.829,770.355 -682.226,1573.2 -1600.27,1573.2l0,-0.115Z" style="fill:#222;fill-rule:nonzero;"/></svg>