<?xml version="1.0" encoding="UTF-8" standalone="no"?><!DOCTYPE svg PUBLIC "-//W3C//DTD SVG 1.1//EN" "http://www.w3.org/Graphics/SVG/1.1/DTD/svg11.dtd"><svg width="100%" height="100%" viewBox="0 0 100 100" version="1.1" xmlns="http://www.w3.org/2000/svg" xmlns:xlink="http://www.w3.org/1999/xlink" xml:space="preserve" xmlns:serif="http://www.serif.com/" style="fill-rule:evenodd;clip-rule:evenodd;stroke-linejoin:round;stroke-miterlimit:2;"><g id="surface23066537"><path d="M33.333,12.5c-11.491,0 -20.833,9.342 -20.833,20.833l0,33.334c0,11.491 9.342,20.833 20.833,20.833l33.334,0c11.491,0 20.833,-9.342 20.833,-20.833l0,-33.334c0,-11.491 -9.342,-20.833 -20.833,-20.833l-33.334,0Zm0,8.333l33.334,0c6.884,0 12.5,5.616 12.5,12.5l0,33.334c0,6.884 -5.616,12.5 -12.5,12.5l-33.334,0c-6.884,0 -12.5,-5.616 -12.5,-12.5l0,-33.334c0,-6.884 5.616,-12.5 12.5,-12.5Zm37.5,4.167c-2.295,0 -4.166,1.872 -4.166,4.167c0,2.295 1.871,4.166 4.166,4.166c2.295,0 4.167,-1.871 4.167,-4.166c0,-2.295 -1.872,-4.167 -4.167,-4.167Zm-20.833,4.167c-11.491,0 -20.833,9.342 -20.833,20.833c0,11.491 9.342,20.833 20.833,20.833c11.491,0 20.833,-9.342 20.833,-20.833c0,-11.491 -9.342,-20.833 -20.833,-20.833Zm0,8.333c6.885,0 12.5,5.615 12.5,12.5c0,6.885 -5.615,12.5 -12.5,12.5c-6.885,0 -12.5,-5.615 -12.5,-12.5c0,-6.885 5.615,-12.5 12.5,-12.5Z" style="fill:url(#_Linear1);fill-rule:nonzero;"/></g><defs><linearGradient id="_Linear1" x1="0" y1="0" x2="1" y2="0" gradientUnits="userSpaceOnUse" gradientTransform="matrix(75,0,0,75,12.5,50)"><stop offset="0" style="stop-color:#4c008f;stop-opacity:1"/><stop offset="0.58" style="stop-color:#0c55c1;stop-opacity:1"/><stop offset="1" style="stop-color:#00a6df;stop-opacity:1"/></linearGradient></defs></svg>