<svg fill="#000000" xmlns="http://www.w3.org/2000/svg" viewBox="0 0 24 24" width="24px" height="24px"><path d="M 3 2 C 2.448 2 2 2.447 2 3 L 2 21 C 2 21.553 2.448 22 3 22 C 3.552 22 4 21.553 4 21 L 4 16 L 21 16 C 21.552 16 22 15.553 22 15 L 22 3 C 22 2.447 21.552 2 21 2 L 3 2 z M 12.703125 4.9863281 C 12.799391 4.9712344 12.8995 4.9745 13 5 C 13.402 5.102 13.644875 5.5081562 13.546875 5.9101562 L 11.910156 12.453125 C 11.809156 12.855125 11.402 13.102 11 13 C 10.598 12.898 10.355125 12.491844 10.453125 12.089844 L 12.089844 5.546875 C 12.165594 5.245375 12.414328 5.0316094 12.703125 4.9863281 z M 8 6 C 8.1865 6 8.373125 6.0723437 8.515625 6.2148438 C 8.800625 6.4958437 8.800625 6.9552344 8.515625 7.2402344 L 6.7578125 9 L 8.515625 10.757812 C 8.796625 11.038813 8.796625 11.504156 8.515625 11.785156 C 8.230625 12.070156 7.769375 12.070156 7.484375 11.785156 L 5.2148438 9.515625 C 4.9298437 9.230625 4.9298437 8.770375 5.2148438 8.484375 L 7.484375 6.2148438 C 7.626875 6.0723437 7.8135 6 8 6 z M 15.992188 6.0019531 C 16.178187 6.0019531 16.365313 6.0723437 16.507812 6.2148438 L 18.779297 8.484375 C 19.062297 8.769375 19.06325 9.229625 18.78125 9.515625 L 16.507812 11.785156 C 16.222812 12.070156 15.761469 12.070156 15.480469 11.785156 C 15.195469 11.504156 15.195469 11.040766 15.480469 10.759766 L 17.234375 9 L 15.480469 7.2421875 C 15.195469 6.9571875 15.195469 6.4958438 15.480469 6.2148438 C 15.620969 6.0723437 15.806188 6.0019531 15.992188 6.0019531 z"/></svg>