<?xml version="1.0" encoding="UTF-8" standalone="no"?>
<!DOCTYPE svg PUBLIC "-//W3C//DTD SVG 1.1//EN" "http://www.w3.org/Graphics/SVG/1.1/DTD/svg11.dtd">
<svg width="100%" height="100%" viewBox="0 0 100 100" version="1.1" xmlns="http://www.w3.org/2000/svg" xmlns:xlink="http://www.w3.org/1999/xlink" xml:space="preserve" xmlns:serif="http://www.serif.com/" style="fill-rule:evenodd;clip-rule:evenodd;stroke-linejoin:round;stroke-miterlimit:2;">
    <g id="envelope-open" transform="matrix(2.9133,0,0,2.9133,9.21381,9.21235)">
        <path d="M28,10.219L28,25.5C28,26.875 26.875,28 25.5,28L2.5,28C1.125,28 0,26.875 0,25.5L0,10.219C0,10.078 0.063,9.938 0.172,9.844C1.813,8.407 1.828,8.235 9.984,2.282C10.968,1.563 12.703,0.001 14,0.001C15.297,0.001 17.047,1.579 18.016,2.282C26.172,8.235 26.188,8.407 27.828,9.844C27.937,9.938 28,10.078 28,10.219ZM19.187,19.359C21.625,17.593 23.328,16.359 24.578,15.421C24.797,15.265 24.844,14.952 24.672,14.733L24.078,13.921C23.906,13.702 23.594,13.655 23.375,13.827C22.141,14.733 20.453,15.983 18.016,17.733C17.047,18.436 15.297,19.999 14,19.999C12.703,19.999 10.953,18.436 9.984,17.733C7.546,15.967 5.859,14.733 4.625,13.827C4.406,13.655 4.094,13.702 3.922,13.921L3.328,14.733C3.156,14.952 3.203,15.264 3.422,15.421C4.672,16.359 6.375,17.593 8.813,19.359C10.032,20.234 11.954,22 14,22C16.063,22 18.031,20.203 19.187,19.359Z" style="fill:rgb(34,34,34);fill-rule:nonzero;"/>
    </g>
</svg>
