<?xml version="1.0" encoding="UTF-8" standalone="no"?><!DOCTYPE svg PUBLIC "-//W3C//DTD SVG 1.1//EN" "http://www.w3.org/Graphics/SVG/1.1/DTD/svg11.dtd"><svg width="100%" height="100%" viewBox="0 0 100 100" version="1.1" xmlns="http://www.w3.org/2000/svg" xmlns:xlink="http://www.w3.org/1999/xlink" xml:space="preserve" xmlns:serif="http://www.serif.com/" style="fill-rule:evenodd;clip-rule:evenodd;stroke-linejoin:round;stroke-miterlimit:2;"><path d="M79.167,16.667l-58.334,-0c-6.857,-0 -12.5,5.642 -12.5,12.5l0,41.666c0,6.858 5.643,12.5 12.5,12.5l58.334,0c6.857,0 12.5,-5.642 12.5,-12.5l-0,-41.666c-0,-6.858 -5.643,-12.5 -12.5,-12.5Zm-58.334,8.333l58.334,0c2.285,0 4.166,1.881 4.166,4.167l-33.333,20.333l-33.333,-20.333c-0,-2.286 1.881,-4.167 4.166,-4.167Zm62.5,45.833c0,2.286 -1.881,4.167 -4.166,4.167l-58.334,0c-2.285,0 -4.166,-1.881 -4.166,-4.167l-0,-32.166l31.166,19.041c1.288,0.744 2.879,0.744 4.167,0l31.333,-19.041l0,32.166Z" style="fill:#fefefe;fill-rule:nonzero;"/></svg>