<?xml version="1.0" encoding="UTF-8" standalone="no"?>
<!DOCTYPE svg PUBLIC "-//W3C//DTD SVG 1.1//EN" "http://www.w3.org/Graphics/SVG/1.1/DTD/svg11.dtd">
<svg width="100%" height="100%" viewBox="0 0 4167 4167" version="1.1" xmlns="http://www.w3.org/2000/svg" xmlns:xlink="http://www.w3.org/1999/xlink" xml:space="preserve" xmlns:serif="http://www.serif.com/" style="fill-rule:evenodd;clip-rule:evenodd;stroke-linejoin:round;stroke-miterlimit:2;">
    <path d="M2319.17,3086.53C2319.27,3086.53 2319.36,3086.53 2319.46,3086.53C2334.86,3086.8 2349.82,3094.62 2358.7,3107.1C2365.39,3116.51 2368.57,3128.21 2367.55,3139.89C2357.47,3245.7 2346.88,3350.37 2336.55,3455.44C2336.55,3455.44 2335.94,3461.22 2334.87,3466.23C2327.83,3499.14 2302.51,3527.43 2270.29,3537.99C2260.74,3541.11 2250.69,3542.7 2240.69,3542.79C2207.96,3542.88 2175.24,3542.91 2142.51,3542.91L2132.7,3542.91C2063.97,3542.91 1995.25,3542.79 1926.53,3542.79C1889.52,3542.69 1853.56,3519.78 1838.11,3485.44C1833.92,3476.11 1831.26,3466.08 1830.17,3455.98C1819.5,3350.76 1809.47,3245.47 1799.11,3140.21C1797.2,3119.95 1809.01,3099.26 1827.7,3090.83C1833.99,3087.99 1840.74,3086.82 1847.65,3086.85L1848.21,3086.85C1853.07,3086.92 1858.01,3087.57 1862.93,3088.65C1935.24,3104.46 2009.3,3112.37 2083.35,3112.38L2084.92,3112.38C2144.8,3112.3 2204.66,3107.05 2263.59,3096.62C2278.54,3093.97 2293.45,3091.02 2308.23,3087.69C2309.67,3087.38 2309.75,3087.37 2310.39,3087.26C2313.2,3086.77 2316.05,3086.54 2318.89,3086.53L2319.17,3086.53ZM1847.81,3126.91C1843.09,3126.95 1838.91,3131.42 1839.33,3136.23C1849.27,3241.45 1859.7,3346.63 1870.37,3451.79C1873.26,3478.74 1897.53,3502.11 1926.22,3502.37C1978.59,3502.51 2030.96,3502.58 2083.34,3502.58L2093.16,3502.58C2142.26,3502.57 2191.36,3502.5 2240.45,3502.37C2267.04,3502.14 2292.15,3481.51 2296.05,3453.81C2297.84,3441.08 2298.62,3428.14 2299.89,3415.3C2308.41,3328.66 2316.93,3241.94 2325.44,3155.18C2326.07,3148.82 2326.8,3142.47 2327.31,3136.11C2327.64,3131.47 2323.49,3127.08 2318.8,3126.97L2318.67,3126.97C2318.14,3126.97 2317.6,3127.02 2317.05,3127.13C2239.58,3144.04 2161.48,3152.55 2083.86,3152.68L2082.08,3152.68C2008.63,3152.69 1935.61,3145.19 1864,3130.21C1859.17,3129.2 1854.41,3128.06 1849.51,3127.08C1849.01,3126.98 1848.61,3126.92 1848.06,3126.91L1847.81,3126.91ZM2994.29,2611.6C3008.41,2611.81 3022.2,2618.35 3031.32,2629.21C3098.72,2710.82 3165.57,2793 3232.83,2874.74C3232.83,2874.74 3236.49,2879.28 3239.26,2883.59C3262.62,2919.91 3257.9,2972.25 3226.58,3003.97C3152.58,3078.08 3078.48,3152.11 3004.43,3226.18C2986.39,3244.14 2961.05,3254.09 2935.55,3254.22L2935.12,3254.22C2923.68,3254.23 2912.21,3252.25 2901.37,3248.13C2891.83,3244.51 2882.89,3239.33 2874.94,3232.91C2792.95,3165.99 2711.35,3098.61 2629.56,3031.46C2614.12,3018.69 2607.64,2995.98 2614.7,2976.76C2618.9,2965.32 2627.99,2956.44 2638.23,2949.87C2764.27,2868.93 2872.06,2760.83 2952.51,2634.14C2953.31,2632.91 2953.37,2632.84 2953.74,2632.31C2954.3,2631.52 2954.89,2630.74 2955.49,2629.98C2964.53,2618.67 2978.71,2611.8 2993.24,2611.6C2993.48,2611.6 2993.72,2611.6 2993.96,2611.6L2994.29,2611.6ZM1173.47,2611.63C1189.61,2611.85 1205.36,2620.47 1214.21,2634.18C1294.63,2760.86 1403.63,2870.61 1532.41,2952.44C1533.64,2953.23 1533.7,2953.29 1534.24,2953.67C1553.65,2967.38 1560.95,2996.18 1548.47,3017.97C1542.52,3028.37 1532.06,3035.58 1522.4,3043.51C1445.48,3106.69 1368.89,3169.56 1292.15,3232.56C1292.15,3232.56 1287.81,3236.07 1283.84,3238.68C1268.47,3248.75 1250.21,3253.8 1231.85,3253.92L1231.35,3253.92C1207.13,3253.96 1182.78,3245.43 1164.7,3228.57C1163.99,3227.91 1163.3,3227.24 1162.61,3226.56C1088.3,3152.5 1014.23,3078.2 940.088,3003.97C913.926,2977.47 905.11,2935.58 918.711,2900.65C922.351,2891.3 927.474,2882.57 933.839,2874.74C1001.02,2793.05 1068.05,2711.24 1135.16,2629.49C1144.4,2618.33 1158.53,2611.63 1173.13,2611.62L1173.47,2611.63ZM1172.94,2652.04C1170.45,2652.06 1168.01,2653.21 1166.41,2655.12C1098.97,2736.57 1032.3,2818.65 965.13,2900.32C948.4,2920.91 948.535,2953.64 967.367,2974.03C967.825,2974.52 968.292,2975.01 968.766,2975.49C1042.83,3049.64 1116.82,3123.87 1191.06,3197.85C1201.66,3208.29 1216.3,3213.77 1231,3213.77L1231.31,3213.77C1243.2,3213.71 1255.11,3210.07 1264.94,3202.57C1275.07,3194.83 1284.74,3186.36 1294.63,3178.24C1304.73,3169.94 1314.84,3161.64 1324.95,3153.34C1387.09,3102.32 1449.53,3051.37 1511.46,3000.19C1515.48,2996.81 1515.3,2989.65 1510.77,2986.57C1497.31,2977.59 1483.34,2968.7 1469.88,2959.25C1358.77,2881.26 1262.31,2781.53 1188.25,2668.49C1185.49,2664.28 1182.85,2659.99 1180.07,2655.81C1178.5,2653.51 1175.9,2652.08 1173.07,2652.04L1172.94,2652.04ZM2993.63,2652.01C2990.83,2652.05 2988.08,2653.57 2986.55,2655.94C2904.42,2785.27 2795.12,2895.45 2668.57,2978.37C2665.74,2980.22 2662.9,2982.06 2660.06,2983.89C2659.28,2984.38 2658.5,2984.88 2657.73,2985.38C2652.56,2988.68 2650.22,2996.04 2655.19,3000.21C2736.68,3067.62 2818.48,3134.66 2900.41,3201.53C2910.4,3209.59 2923.24,3213.71 2936.13,3213.67L2936.44,3213.67C2950.07,3213.57 2963.74,3208.83 2974.16,3199.23C2974.66,3198.78 2975.14,3198.31 2975.62,3197.84C3049.89,3123.9 3123.85,3049.65 3197.9,2975.49C3216.91,2956.23 3219.87,2923.17 3201.75,2900.58C3134.96,2818.37 3067.63,2736.65 3000.27,2655.08C2998.68,2653.18 2996.27,2652.03 2993.75,2652.01L2993.63,2652.01ZM1739.16,2533.34C1776.43,2533.54 1813.11,2544.2 1846.65,2561.05C1887.47,2581.57 1925.64,2607.4 1966.09,2629.43C2023.81,2660.89 2086.18,2685.34 2150.02,2697.67L2154.27,2698.99C2157.67,2700.96 2158.78,2701.22 2161.41,2704.24C2167.19,2710.9 2167.91,2721.61 2162.66,2729.05C2159.73,2733.2 2155.47,2736.2 2151.56,2739.55C2094.99,2787.91 2024.25,2819.28 1951.98,2835.58C1911.35,2844.74 1869.64,2849.78 1828.04,2849.89L1826.62,2849.89C1808.19,2849.89 1789.77,2848.91 1771.48,2846.9C1728.95,2842.21 1687.03,2829.92 1651.5,2804.73C1650.96,2804.34 1650.42,2803.96 1649.89,2803.57C1648.32,2802.43 1647.58,2801.87 1646.67,2801.19C1611.97,2774.92 1586.93,2734.99 1583.18,2691.48C1579.13,2644.55 1600.05,2596.15 1637.53,2566.6C1665.56,2544.49 1701.56,2533.54 1737.66,2533.34C1737.91,2533.34 1738.16,2533.34 1738.41,2533.34L1739.16,2533.34ZM2669.03,2326.45C2670.42,2326.98 2671.87,2327.35 2673.19,2328.03C2677.19,2330.08 2680.44,2333.48 2682.3,2337.51C2683.65,2340.42 2684.12,2343.61 2684.76,2346.76C2705.6,2450.19 2682.74,2560.71 2636.66,2655.14C2618.74,2691.87 2597.32,2727.19 2570.58,2758.12C2533.47,2801.04 2480.18,2833.89 2422.33,2834.13L2421.64,2834.13C2420.71,2834.13 2419.79,2834.12 2418.87,2834.1C2388.39,2833.54 2358.23,2823.23 2334.05,2804.83C2334.05,2804.83 2331.77,2803.08 2330.16,2801.77C2291.77,2770.33 2271.88,2718.37 2279.08,2668.16C2286.18,2618.74 2317.5,2574.27 2356.16,2543.45C2391.32,2515.44 2432.86,2495.71 2471.5,2473.47C2536.99,2435.78 2598.49,2390.83 2648.8,2332.77L2652.07,2329.75C2653.36,2329 2654.57,2328.11 2655.93,2327.52C2659.59,2325.91 2660.7,2326.15 2664.62,2325.83L2669.03,2326.45ZM1738.22,2573.62C1704.07,2573.71 1669.44,2586.67 1647.29,2612.89C1623.84,2640.65 1616.58,2681.08 1629.59,2715.58C1637.82,2737.41 1653.38,2756.04 1672.25,2770.02C1694.19,2786.26 1720.32,2796.96 1746.71,2802.37C1771.97,2807.55 1797.79,2809.65 1823.65,2809.63L1824.64,2809.63C1840.89,2809.59 1857.15,2808.71 1873.29,2807.24C1954.44,2799.87 2034.27,2775.45 2101.02,2727.97L2101.22,2727.83C2100.43,2727.62 2099.64,2727.41 2098.86,2727.2C2029.68,2708.53 1965.63,2676.78 1904.52,2640.65C1865.51,2617.6 1828.01,2591.1 1783.07,2579.57C1768.68,2575.87 1753.89,2573.7 1739.01,2573.62L1738.22,2573.62ZM2650.62,2390.1C2650.58,2390.09 2650.46,2390.17 2650.19,2390.44C2600.29,2440.49 2541.38,2480.3 2479.13,2515.49C2440.08,2537.57 2398.81,2556.53 2366.51,2588.06C2337.87,2616.01 2316.79,2653.32 2317.84,2692.75C2318.67,2723.55 2333.63,2753.7 2358.19,2772.6C2358.19,2772.6 2363.42,2776.51 2367.86,2779.17C2384.21,2788.98 2403.2,2793.67 2422.44,2793.62L2423.18,2793.61C2435.28,2793.51 2447.47,2791.53 2459.15,2787.77C2488.2,2778.44 2513.99,2760.14 2534.08,2738.51C2560.3,2710.28 2580.78,2676.92 2598.17,2642.12C2635.59,2567.25 2657.12,2483.76 2651.38,2400.39C2651.15,2397.04 2650.87,2393.7 2650.55,2390.35C2650.55,2390.35 2650.68,2390.13 2650.63,2390.1L2650.62,2390.1ZM1970.06,1455.39C1970.06,1455.39 1970.62,1458.26 1970.62,1458.26L1971.4,1462.22L1973.65,1468.8L1976.77,1475.02L1980.72,1480.75L1985.4,1485.88L1990.75,1490.34L1996.65,1494.02L1997.64,1494.53L2000.01,1495.53L2003,1496.86L2004.14,1497.26L2006.62,1497.92L2009.67,1498.82L2010.95,1499.07C2082.28,1512.85 2148.57,1542.12 2210.64,1578C2251.65,1601.69 2290.96,1628.69 2334.89,1645.83C2341.01,1648.22 2348.01,1650.54 2348.01,1650.54C2374.09,1659 2401.58,1663.85 2428.83,1663.83L2429.97,1663.83C2450.78,1663.71 2471.44,1660.75 2491.23,1654.37C2507.17,1649.24 2522.28,1641.87 2536.11,1632.65L2537.25,1633.8C2549.01,1645.68 2560.32,1658.02 2571.14,1670.8C2557.61,1680.96 2549.43,1697.79 2550.37,1714.63C2550.5,1716.97 2550.96,1719.29 2551.25,1721.62L2553.09,1728.42C2553.79,1730.47 2554.49,1732.52 2555.18,1734.57C2577.95,1802.83 2584.82,1874.01 2584.6,1945C2584.47,1988.36 2581.48,2032.72 2587.1,2076.11C2594.88,2136.21 2624.02,2197.75 2673.64,2234.16C2682.03,2240.32 2690.93,2245.67 2700.19,2250.2C2695.82,2266.37 2690.83,2282.28 2685.25,2297.91L2684.71,2299.42C2684.26,2299.23 2683.82,2299.03 2683.37,2298.85C2677.55,2296.46 2675.89,2296.49 2669.75,2295.36L2662.71,2295.05C2656.49,2295.64 2654.84,2295.47 2648.84,2297.35C2644.34,2298.75 2640.06,2300.78 2636.12,2303.36C2634.16,2304.64 2632.38,2306.2 2630.51,2307.62L2625.53,2312.61C2577.88,2367.61 2518.88,2410.68 2456.14,2446.79C2416.03,2469.88 2374.48,2489.9 2338.45,2518.21C2287.02,2558.63 2248.83,2619.66 2246.83,2684.21C2246.65,2689.79 2246.76,2695.36 2247.13,2700.91C2231.13,2705.15 2214.88,2708.78 2198.42,2711.78L2196.83,2712.07C2194.93,2695.11 2184.26,2679.62 2169.16,2671.99C2167.07,2670.93 2164.84,2670.17 2162.67,2669.26L2155.86,2667.44C2104.21,2657.47 2054.86,2639.86 2008.09,2616.62C1957.08,2591.28 1910.76,2558.81 1860.48,2533.55C1823.14,2514.78 1781.64,2502.78 1739.28,2502.55L1738.12,2502.55C1700.05,2502.66 1662.5,2513.14 1631.33,2533.3L1630.6,2533.78C1618.45,2521.57 1606.8,2508.88 1595.67,2495.74C1609.28,2485.55 1617.37,2468.72 1616.42,2451.89C1616.29,2449.55 1615.84,2447.23 1615.54,2444.9L1613.71,2438.1C1612.9,2435.76 1612.1,2433.43 1611.33,2431.08C1588.98,2363.7 1581.98,2292.19 1582.2,2221.52C1582.34,2176.75 1585.61,2130.76 1579.11,2086.05C1573,2044.04 1557.07,2002.33 1530.63,1968.75C1513.19,1946.6 1491.11,1928.78 1466.54,1916.53C1471.08,1899.71 1476.29,1883.16 1482.14,1866.92L1482.46,1867.05C1488.97,1869.81 1496.04,1871.24 1503.08,1871.27L1503.42,1871.27C1510.69,1871.24 1517.93,1869.72 1524.52,1866.61C1528.76,1864.61 1532.53,1861.75 1536.28,1858.91L1541.25,1853.92C1542.67,1852.28 1544.1,1850.65 1545.53,1849.03C1592.81,1795.7 1650.57,1754.24 1711.86,1719.03C1749.83,1697.22 1790.27,1677.43 1825.37,1650.61C1868.84,1617.38 1904.26,1569.55 1915.88,1515.61C1919.41,1499.21 1920.63,1482.33 1919.58,1465.62C1936.13,1461.23 1952.95,1457.49 1970.01,1454.43L1970.06,1455.39ZM1389.52,1928.49C1422.36,1928.81 1454.86,1940.78 1480.53,1961.47C1517.06,1990.93 1539.03,2036.51 1547.39,2082.83C1553.67,2117.58 1552.82,2153.34 1551.98,2188.86L1551.88,2193.3C1551.63,2203.66 1551.42,2213.99 1551.4,2224.26C1551.3,2299.97 1559.62,2375.91 1584.61,2448.16L1585.59,2452.5C1585.6,2456.43 1585.92,2457.52 1584.62,2461.3C1581.91,2469.18 1574,2474.78 1565.65,2474.87L1565.44,2474.88C1564.88,2474.88 1564.32,2474.85 1563.76,2474.8C1560.92,2474.54 1558.24,2473.54 1555.6,2472.66C1514.15,2458.83 1475.18,2437.86 1439.65,2411.73C1437.28,2409.98 1434.46,2407.85 1434.45,2407.84C1434.24,2407.68 1434.03,2407.53 1433.83,2407.37C1433.4,2407.04 1432.97,2406.72 1432.54,2406.39C1364.1,2354.04 1307.46,2283.14 1270.88,2205.45C1257.66,2177.37 1247.2,2148.07 1243.43,2116.59C1238.1,2071.99 1245.72,2024.91 1272.06,1988.26C1298.44,1951.56 1343.16,1928.71 1387.85,1928.48L1388.75,1928.48L1389.52,1928.49ZM1387.99,1968.76C1341.04,1969 1298.21,2003.85 1286.23,2052.77C1279.18,2081.53 1281.24,2112.41 1288.82,2139.87C1298.58,2175.26 1315.88,2208.32 1335.58,2239.62C1367.08,2289.71 1406.71,2335.15 1453.5,2371.68C1455.26,2373.05 1457.02,2374.4 1458.79,2375.75C1458.8,2375.76 1458.81,2375.77 1458.82,2375.77C1482.17,2393.53 1507.32,2408.74 1533.87,2420.87L1534.09,2420.98L1533.65,2419.32C1514.92,2349.4 1510.46,2277.13 1511.25,2205.64C1511.61,2172.82 1513.26,2139.87 1510.1,2107.23C1505.88,2063.79 1490.24,2020.12 1453.8,1991.68C1435.57,1977.46 1412.73,1969.09 1389.61,1968.77C1389.34,1968.77 1389.07,1968.76 1388.8,1968.76L1387.99,1968.76ZM3135.85,1798.88C3143.45,1798.98 3151.33,1800.21 3159.13,1800.97C3257.97,1810.69 3356.68,1820.42 3455.44,1830.15C3455.44,1830.15 3461.22,1830.76 3466.21,1831.83C3498.9,1838.85 3527.02,1863.88 3537.78,1895.86C3541.04,1905.55 3542.7,1915.77 3542.79,1925.95C3543.07,2030.69 3542.79,2135.43 3542.79,2240.17C3542.69,2277.18 3519.66,2313.17 3485.39,2328.55C3476.09,2332.73 3466.16,2335.37 3455.93,2336.46C3350.71,2347.02 3245.46,2357.21 3140.22,2367.58C3138.91,2367.71 3137.59,2367.78 3136.27,2367.79L3135.83,2367.79C3118.57,2367.77 3101.39,2358.16 3092.79,2342.88C3086.18,2331.16 3085.73,2317.02 3088.64,2303.77C3119.89,2160.77 3120.24,2012.67 3090.31,1870.53C3089.44,1866.36 3088.51,1862.21 3087.61,1858.05C3087.27,1856.45 3087.26,1856.3 3087.13,1855.52C3083.62,1833.51 3097.1,1809.98 3118.18,1802.03C3123.59,1799.99 3129.39,1798.94 3135.13,1798.88C3135.31,1798.88 3135.4,1798.88 3135.49,1798.88L3135.85,1798.88ZM1031.53,1798.91C1054.68,1799.14 1076.41,1817.41 1079.7,1841.14C1080.71,1848.41 1079.59,1855.77 1078.01,1862.95C1047.17,2004.1 1046.29,2152.17 1075.99,2294.42C1076.95,2299.03 1077.94,2303.64 1078.98,2308.25C1079.33,2309.84 1079.34,2309.99 1079.47,2310.77C1079.65,2311.85 1079.8,2312.94 1079.9,2314.03C1081.53,2330.46 1074.19,2347.53 1061.02,2357.64C1052.59,2364.11 1042,2367.67 1031.35,2367.74L1031.06,2367.75C1029.64,2367.75 1028.21,2367.69 1026.79,2367.56C921.623,2357.68 815.246,2346.79 710.767,2336.47C710.767,2336.47 704.843,2335.81 699.961,2334.74C667.306,2327.64 639.201,2302.39 628.686,2270.33C625.555,2260.79 623.965,2250.72 623.877,2240.72C623.572,2135.98 623.875,2031.24 623.875,1926.5C623.983,1889.53 646.985,1853.51 681.318,1838.13C690.653,1833.95 700.691,1831.31 710.793,1830.24C816,1819.79 921.222,1809.5 1026.44,1799.14C1027.89,1799 1029.34,1798.92 1030.8,1798.91C1030.98,1798.91 1031.07,1798.9 1031.16,1798.9L1031.53,1798.91ZM3135.39,1839.3C3130.35,1839.35 3126.07,1844.53 3127.13,1849.58C3159.35,1997.24 3161.56,2153.44 3130.02,2303.58C3129.07,2308.12 3128,2312.61 3127.07,2317.19C3126.1,2322.18 3130.43,2327.41 3135.59,2327.39L3135.72,2327.39C3135.88,2327.39 3136.05,2327.38 3136.22,2327.37C3241.44,2317.37 3346.61,2306.81 3451.77,2296.26C3479.15,2293.35 3502.12,2268.74 3502.37,2240.48C3502.65,2135.72 3502.65,2030.95 3502.37,1926.18C3502.13,1899.67 3481.28,1874.52 3453.79,1870.65C3440.96,1868.85 3428.13,1868.07 3415.29,1866.81C3328.66,1858.27 3241.94,1849.72 3155.17,1841.2C3148.81,1840.57 3142.46,1839.83 3136.09,1839.32C3135.97,1839.32 3135.84,1839.31 3135.71,1839.3C3135.66,1839.3 3135.6,1839.3 3135.55,1839.3L3135.39,1839.3ZM1031.13,1839.32C1030.9,1839.33 1030.66,1839.34 1030.43,1839.36C925.223,1849.35 820.078,1860 714.913,1870.44C688.614,1873.22 665.504,1896.48 664.341,1924.17C664.313,1924.84 664.299,1925.51 664.293,1926.19C663.987,2030.95 663.988,2135.72 664.293,2240.49C664.53,2267.26 685.179,2292.19 712.847,2296.01C725.543,2297.77 738.544,2298.59 751.403,2299.86C837.999,2308.39 924.555,2316.91 1011.49,2325.45C1017.83,2326.08 1024.17,2326.76 1030.52,2327.32C1030.72,2327.34 1030.92,2327.34 1031.13,2327.34L1031.25,2327.34C1036.18,2327.25 1040.55,2322.25 1039.56,2317.19C1037.08,2304.89 1034.33,2292.74 1032.04,2280.46C1006.4,2143.08 1007.78,2001.12 1036.45,1864.03C1037.46,1859.19 1038.61,1854.38 1039.59,1849.53C1040.52,1844.72 1036.65,1839.57 1031.58,1839.33C1031.5,1839.33 1031.43,1839.33 1031.36,1839.32L1031.13,1839.32ZM2607.4,1692.62C2720.39,1729.08 2814.28,1817.72 2874.56,1920.67C2898.05,1960.78 2917.97,2003.17 2923.48,2050.95C2928.09,2090.99 2922.28,2132.89 2901.95,2167.2C2885.58,2194.84 2859.9,2216.95 2829.78,2228.52C2813.66,2234.71 2796.41,2237.79 2779.13,2237.83L2778.64,2237.83C2754.33,2237.8 2729.94,2231.76 2708.45,2219.94C2681.89,2205.33 2660.27,2182.57 2645.18,2156.12C2626.76,2123.85 2617.72,2086.86 2615.56,2049.38C2612.9,2003.23 2616.25,1957 2615.02,1910.28C2613.31,1845.06 2603.45,1779.87 2582.18,1718.36L2581.2,1714.02C2581.2,1710.09 2580.87,1709 2582.18,1705.22C2584.1,1699.64 2588.67,1694.94 2594.26,1692.88C2598.01,1691.5 2599.11,1691.8 2603.04,1691.72L2607.4,1692.62ZM2632.76,1745.45C2632.71,1745.45 2632.71,1745.57 2632.82,1746C2651.49,1815.3 2656.3,1887.07 2655.57,1959.48C2655.1,2004.79 2650.8,2049.91 2663.3,2094.93C2673.01,2129.87 2692.32,2163.11 2723.67,2182.22C2740.32,2192.37 2759.8,2197.64 2779.22,2197.58L2779.95,2197.57C2791.36,2197.46 2802.74,2195.5 2813.49,2191.61C2847.78,2179.2 2873.16,2147.41 2881.26,2110.73C2888.68,2077.16 2883.87,2041.55 2872.8,2010.33C2857.79,1967.98 2834.57,1928.7 2807.62,1892.39C2763.53,1833 2707.28,1781.63 2641.13,1749.51C2638.41,1748.18 2635.68,1746.9 2632.93,1745.64C2632.93,1745.64 2632.82,1745.47 2632.77,1745.45L2632.76,1745.45ZM1745.95,1332.39C1791.5,1332.72 1836.21,1355.2 1862.84,1392.9C1886.78,1426.79 1894.7,1471.33 1885.11,1512.1C1874.42,1557.54 1843.77,1597.66 1807.12,1625.8C1772.98,1652.02 1733.5,1671.1 1696.53,1692.34C1632.3,1729.23 1571.77,1773.01 1522.49,1828.61C1520.98,1830.31 1519.48,1832.03 1517.99,1833.75L1514.72,1836.77C1511.32,1838.74 1510.54,1839.56 1506.61,1840.33C1505.51,1840.54 1504.4,1840.65 1503.29,1840.67L1503.09,1840.67C1495.39,1840.69 1487.79,1836.13 1484.5,1829.01C1483.07,1825.92 1482.59,1822.53 1481.92,1819.19C1459.28,1705.82 1487.94,1585.82 1543.98,1484.77C1567.86,1441.72 1596.23,1400.71 1636.08,1371.36C1667.27,1348.38 1704.7,1332.88 1743.44,1332.39C1744.1,1332.39 1744.76,1332.38 1745.42,1332.38L1745.95,1332.39ZM1745.2,1372.66C1745,1372.66 1744.81,1372.66 1744.61,1372.66C1705.85,1372.91 1667.84,1393.9 1640.92,1419.64C1621.64,1438.08 1605.91,1460.14 1591.73,1482.97C1553.49,1544.52 1527.6,1613.96 1518.16,1685.63C1514.21,1715.61 1513.38,1746.04 1516.25,1776.16L1516.27,1776.41L1517.13,1775.55C1517.42,1775.26 1517.71,1774.97 1518,1774.68C1568.35,1724.52 1627.71,1684.83 1690.12,1649.64C1732.54,1625.73 1777.02,1605.33 1810.3,1567.99C1834.87,1540.43 1851.78,1504.61 1848.6,1467.45C1845.26,1428.4 1818.57,1392.28 1780.83,1378.77C1769.61,1374.76 1757.85,1372.75 1745.78,1372.66L1745.2,1372.66ZM2342.54,1316.8C2388.02,1316.91 2434.28,1321.57 2476.26,1339.93C2514.66,1356.72 2549.15,1384.37 2568.19,1421.58C2587.2,1458.74 2589.2,1504.31 2572.81,1542.98C2553.89,1587.61 2511.54,1620.6 2462.37,1630.03C2451.52,1632.11 2440.48,1633.09 2429.42,1633.13L2428.59,1633.13C2404.51,1633.12 2380.3,1628.65 2357.51,1621.25C2357.51,1621.25 2356.57,1620.94 2355.92,1620.72C2317.45,1607.78 2283.1,1585.1 2247.69,1564.04C2193.58,1531.92 2137.63,1502.56 2077.52,1484C2057.55,1477.84 2037.2,1472.79 2016.78,1468.85L2012.53,1467.52L2009.18,1465.59L2007.61,1464.32L2005.85,1462.7L2003.55,1459.8L2002.87,1458.61L2002.34,1457.31L2001.63,1455.85L2001.2,1454.48L2000.98,1453.11C2000.98,1453.11 2000.61,1451.57 2000.61,1451.57L2000.49,1450.09L2000.56,1448.87L2000.53,1447.34L2000.76,1445.64L2001.07,1444.56L2001.33,1443.19L2002,1441.36L2002.5,1440.46L2002.99,1439.3L2005.41,1435.84L2006.38,1434.94L2007.1,1434.13C2079.89,1368.35 2177.3,1332.32 2273.69,1320.86C2295.94,1318.21 2318.34,1316.84 2340.8,1316.8L2342.54,1316.8ZM2340.86,1357.07C2247.25,1357.28 2152.49,1380.65 2075.74,1431.69C2072.38,1433.92 2069.07,1436.21 2065.78,1438.55L2065.59,1438.69C2134.81,1457.02 2201.09,1489.7 2262.27,1525.87C2296.52,1546.11 2329.39,1569 2367.47,1582.11C2368.47,1582.45 2369.94,1582.94 2370.01,1582.96C2388.64,1589.13 2408.56,1592.83 2428.25,1592.83L2428.74,1592.83C2451.23,1592.76 2473.38,1587.82 2492.89,1576.17C2521.39,1559.15 2541.13,1528.13 2543.59,1494.76C2545.98,1462.38 2531.59,1429.96 2507.48,1407.29C2480.35,1381.75 2443.63,1367.65 2407.76,1361.92C2386.01,1358.44 2363.92,1357.1 2341.9,1357.07L2340.86,1357.07ZM2936.93,912.086C2961.82,912.421 2986.44,922.651 3004.06,939.999C3078.26,1013.94 3152.17,1088.18 3226.23,1162.28C3252.36,1188.58 3261.6,1230.55 3248.04,1265.78C3244.37,1275.32 3239.14,1284.24 3232.72,1292.14L3031.54,1537.22C3022.33,1548.35 3008.13,1554.76 2993.78,1554.95L2993.31,1554.95C2987.85,1554.97 2982.38,1554.08 2977.16,1552.21C2965.6,1548.05 2956.6,1538.94 2949.95,1528.55C2868.68,1402.01 2760.66,1294.5 2634.18,1214.18C2616.89,1203 2607.66,1180.07 2613.53,1159.52C2616.21,1150.17 2621.7,1141.74 2629.25,1135.39C2710.51,1068.16 2792.72,1001.15 2874.51,934.004C2891.73,919.914 2914.49,912.043 2936.34,912.08L2936.93,912.086ZM1231.79,912.055C1253.45,912.339 1274.96,920.073 1291.84,933.719C1373.75,1000.71 1455.43,1067.98 1537.23,1135.11C1552.91,1148.07 1559.27,1171.17 1551.85,1190.5C1547.57,1201.62 1538.66,1210.24 1528.57,1216.71C1402.91,1297.41 1294.55,1406.02 1214.22,1532.43C1213.25,1533.92 1213.11,1534.1 1212.56,1534.85C1203.56,1547.2 1188.44,1554.72 1173.04,1554.88L1172.58,1554.89C1168.81,1554.89 1165.02,1554.46 1161.3,1553.54C1151.26,1551.07 1142.11,1545.32 1135.43,1537.36C1068.23,1456.12 1001.17,1373.91 934.023,1292.14C934.023,1292.14 930.369,1287.61 927.6,1283.32C904.633,1247.68 908.06,1197.05 938.123,1164.75C938.78,1164.04 939.449,1163.35 940.125,1162.66C1014.11,1088.25 1088.25,1013.98 1162.71,940.039C1180.37,922.63 1204.71,912.427 1229.61,912.055C1230.16,912.05 1230.72,912.048 1231.28,912.05L1231.79,912.055ZM1231.07,952.466C1230.86,952.465 1230.64,952.466 1230.43,952.466C1215.88,952.597 1201.56,958.496 1191.14,968.767C1116.79,1042.6 1042.75,1116.76 968.873,1191.07C950.286,1209.99 947.21,1242.53 963.853,1264.7C971.631,1275.05 980.181,1284.66 988.363,1294.63C1043.75,1362.08 1098.9,1429.23 1154.38,1496.76C1158.44,1501.7 1162.4,1506.72 1166.55,1511.58C1168.14,1513.41 1170.53,1514.33 1172.94,1514.34L1173.06,1514.34C1175.83,1514.3 1178.61,1513.06 1180.19,1510.62C1255.73,1391.74 1356.67,1286.13 1473.79,1204.71C1481.86,1199.1 1490.01,1193.6 1498.23,1188.22C1502.44,1185.46 1506.75,1182.81 1510.91,1180.03C1515.2,1177.12 1515.86,1169.94 1511.62,1166.38C1430.09,1098.99 1348.21,1032.04 1266.34,965.076C1256.5,957.122 1244.05,952.635 1231.37,952.469L1231.07,952.466ZM2936.16,952.497C2935.94,952.496 2935.73,952.497 2935.52,952.497C2922.83,952.617 2910.25,957.082 2900.42,965.024C2818.43,1032.09 2736.67,1098.98 2655.13,1166.43C2651.04,1169.87 2651.38,1177.17 2655.99,1180.15C2777.63,1257.4 2880.83,1357.11 2961.94,1473.77C2970.01,1485.37 2977.82,1497.1 2985.45,1509.06C2987.49,1512.26 2991.08,1514.36 2994.51,1514.33L2994.64,1514.33C2996.72,1514.28 2998.73,1513.45 3000.28,1511.6C3067.64,1430.18 3134.37,1348.24 3201.42,1266.57C3218.74,1245.27 3217.97,1211.53 3197.86,1191.07C3124,1116.73 3049.85,1042.68 2975.61,968.714C2965.29,958.547 2951.07,952.694 2936.5,952.5L2936.16,952.497ZM2142.56,623.686C2175.29,623.692 2208.02,623.743 2240.75,623.877C2277.59,624.254 2313.57,647.347 2328.8,681.757C2332.85,690.911 2335.43,700.695 2336.49,710.686C2347.18,815.907 2357.2,921.194 2367.56,1026.45C2369.89,1050.97 2351.41,1076.12 2325.55,1079.71C2323.74,1079.96 2321.92,1080.08 2320.1,1080.09L2319.76,1080.09C2314.42,1080.09 2309.07,1079.19 2303.74,1078.02C2232.36,1062.41 2159.12,1054.46 2085.69,1054.29L2084,1054.28C2013.39,1054.23 1942.62,1061.37 1873.15,1075.8C1868.25,1076.82 1863.36,1077.87 1858.48,1078.97C1857.04,1079.28 1856.96,1079.28 1856.31,1079.4C1853.83,1079.83 1851.32,1080.05 1848.82,1080.06L1848.54,1080.06C1827.39,1080.04 1806.5,1065.46 1800.68,1044.04C1797.52,1032.45 1799.83,1019.94 1801.05,1007.54C1810.74,908.699 1820.44,809.981 1830.15,711.221C1830.15,711.221 1830.77,705.447 1831.84,700.459C1840.76,659.073 1878.93,625.619 1923.08,623.944C1924.23,623.901 1925.39,623.881 1926.54,623.875C1995.28,623.875 2064.02,623.691 2132.74,623.685L2142.56,623.686ZM2132.59,664.102C2063.93,664.107 1995.29,664.292 1926.65,664.292C1900.04,664.426 1874.62,684.937 1870.65,712.899C1868.84,725.694 1868.08,738.545 1866.82,751.368C1858.3,838.006 1849.78,924.719 1841.27,1011.48C1840.65,1017.84 1839.91,1024.19 1839.4,1030.56C1839.06,1035.27 1843.32,1039.65 1848.05,1039.68L1848.17,1039.68C1848.67,1039.68 1849.17,1039.63 1849.66,1039.52C1926.66,1022.75 2006.26,1014.1 2086.02,1014.16L2087.69,1014.16C2150.16,1014.3 2212.73,1019.79 2274.21,1030.91C2288.58,1033.51 2302.78,1036.68 2317.16,1039.59C2317.65,1039.69 2318.14,1039.73 2318.62,1039.73L2318.74,1039.73C2323.39,1039.64 2327.77,1035.37 2327.34,1030.44C2317.34,925.221 2306.97,820.034 2296.3,714.879C2293.46,688.38 2270.28,665.539 2242.48,664.344C2241.81,664.315 2241.13,664.3 2240.46,664.293C2207.77,664.159 2175.08,664.108 2142.39,664.102L2132.59,664.102Z" style="fill:rgb(254,255,254);"/>
</svg>
