<?xml version="1.0" encoding="UTF-8" standalone="no"?>
<!DOCTYPE svg PUBLIC "-//W3C//DTD SVG 1.1//EN" "http://www.w3.org/Graphics/SVG/1.1/DTD/svg11.dtd">
<svg width="100%" height="100%" viewBox="0 0 4167 4167" version="1.1" xmlns="http://www.w3.org/2000/svg" xmlns:xlink="http://www.w3.org/1999/xlink" xml:space="preserve" xmlns:serif="http://www.serif.com/" style="fill-rule:evenodd;clip-rule:evenodd;stroke-linejoin:round;stroke-miterlimit:2;">
    <path d="M2708.73,3059.4C2712.5,3060.5 2713.64,3060.49 2716.9,3062.81C2722.9,3067.07 2726.3,3074.93 2725.15,3082.34C2724.75,3084.85 2723.76,3087.19 2722.84,3089.49C2662.73,3239.99 2550.64,3365.33 2418.07,3459.57C2342.2,3513.51 2259.4,3558.63 2171.3,3588.59C2135.96,3600.61 2099.5,3609.82 2062.72,3613.32C2049.38,3614.59 2035.96,3615.3 2022.53,3615.35L2021.18,3615.35C1977.73,3615.38 1934.13,3608.52 1892.82,3591.65C1826.13,3564.41 1770.93,3509.91 1746.83,3440.87L1746.38,3439.56C1726.44,3380.83 1729.63,3314.99 1754.88,3258.45C1775.02,3213.37 1808.67,3174.86 1849.41,3146.83C1910.27,3104.94 1985.12,3085.3 2058.91,3083C2066.64,3082.76 2074.37,3082.66 2082.09,3082.66L2083.74,3082.66C2146.07,3082.83 2208.35,3090.23 2270.85,3094.49C2312.54,3097.33 2354.33,3099.05 2396.04,3099.04L2398.4,3099.04C2456.65,3098.93 2514.75,3095.43 2572.24,3086.86C2614.99,3080.5 2657.31,3071.54 2699,3060.07L2699.89,3059.82L2704.29,3059.12L2708.73,3059.4ZM2670.35,3109.05C2670.21,3109.05 2670,3109.05 2669.86,3109.09C2580.53,3130.16 2488.81,3139.29 2397.2,3139.51L2394.68,3139.51C2379.55,3139.52 2364.42,3139.29 2349.31,3138.83C2278.35,3136.66 2207.77,3129.18 2135.98,3124.95C2118.26,3123.9 2100.59,3123.16 2082.9,3123.13L2081.67,3123.13C2047.14,3123.13 2012.59,3125.87 1977.61,3134.38C1922.2,3147.86 1868.81,3173.93 1829.65,3217.01C1798.65,3251.13 1778.54,3295.17 1774.33,3340.97C1771.68,3369.79 1775.2,3399.17 1784.48,3426.5C1784.48,3426.5 1786.33,3431.84 1788.06,3436.18C1814.2,3501.86 1876.01,3549.8 1946.46,3566.65C1971.03,3572.53 1996.29,3575.26 2021.44,3575.3L2022.72,3575.3C2051.72,3575.24 2080.54,3571.62 2107.95,3565.13C2163.21,3552.06 2216.32,3529.87 2267.32,3503.94C2360.5,3456.57 2446.06,3395.59 2520.79,3320.04C2581.49,3258.66 2633.51,3187.93 2670.49,3109.05C2670.49,3109.05 2670.46,3109.05 2670.42,3109.05L2670.35,3109.05ZM928.353,2385.08C984.427,2385.33 1040,2404.62 1087.04,2436.39C1138.8,2471.33 1180.6,2519.66 1212.3,2573.45C1248.01,2634.07 1275.49,2699.08 1307.22,2763.09C1350.72,2850.88 1400.37,2935.79 1461.82,3012.4C1488,3045.03 1516.07,3076.09 1545.95,3105.53L1548.76,3108.99C1550.5,3112.51 1551.28,3113.34 1551.79,3117.31C1552.91,3126.07 1547.57,3135.38 1539.07,3138.66C1534.88,3140.28 1532.87,3140.08 1530.71,3140.39C1497.81,3145.1 1464.69,3147.37 1431.56,3147.42L1429.99,3147.42C1329.02,3147.37 1227.94,3126.75 1132.46,3091.67C1028.42,3053.44 929.684,2999.04 844.399,2929.6C804.819,2897.37 768.609,2862 739.478,2818.06C722.747,2792.82 708.587,2765.79 698.16,2737.44C698.16,2737.44 696.196,2732.01 694.695,2727.48C675.473,2669.39 673.468,2604.97 694.455,2547.3C719.727,2477.86 777.818,2421.34 848.368,2397.86C873.93,2389.36 900.828,2385.11 927.718,2385.08L928.353,2385.08ZM927.006,2425.36C866.587,2425.62 806.516,2453.04 767.534,2499.8C737.353,2535.99 720.592,2582.78 719.576,2629.92C718.89,2661.77 725.066,2693.63 735.987,2723.59L736.003,2723.64C754.196,2773.11 784.534,2817.85 821.249,2854.73C868.855,2902.54 924.294,2941.86 982.364,2976.07C1095.59,3042.77 1221.55,3088.86 1351.36,3102.87C1377.37,3105.68 1403.56,3107.14 1429.71,3107.15L1430.78,3107.15C1450.12,3107.13 1469.42,3106.32 1488.61,3104.68L1488.75,3104.67C1415.56,3027 1354.48,2938.26 1303.6,2843.95C1269.24,2780.26 1239.85,2713.97 1207.1,2648.74C1183.38,2601.49 1157.08,2555.74 1119.82,2516.84C1070.16,2464.99 1003.97,2426.1 929.472,2425.37C929.061,2425.36 928.65,2425.36 928.239,2425.36L927.006,2425.36ZM3256.16,2022.67C3257.91,2022.68 3259.69,2022.9 3261.44,2023.12C3265.14,2024.45 3266.28,2024.51 3269.39,2027.02C3272.9,2029.85 3273.72,2031.68 3275.07,2033.4C3346.14,2123.91 3393.82,2232.51 3420.39,2345.51C3446.03,2454.6 3453.53,2568.25 3442.55,2679.86C3436.45,2741.89 3425.25,2804.85 3400.28,2861.18C3377.55,2912.49 3345.23,2960.28 3302.39,2995.99C3256.22,3034.48 3197.19,3057.68 3137.29,3057.89L3136.56,3057.89C3134.12,3057.9 3131.67,3057.86 3129.22,3057.78C3056.71,3055.52 2986.01,3019.36 2941.27,2961.35C2909.26,2919.85 2891.09,2868.33 2887.23,2815.93C2882.52,2751.83 2897.63,2686.6 2924.72,2628.47C2953.28,2567.2 2994.01,2512.63 3032.6,2456.27C3084.2,2380.84 3133.08,2303.72 3171.36,2221.16C3198.71,2162.17 3220.87,2100.75 3237.26,2037.64L3238.85,2033.48C3239.68,2032.24 3240.37,2030.91 3241.32,2029.77C3244.2,2026.33 3248.25,2023.92 3252.59,2023C3253.67,2022.77 3254.77,2022.68 3255.88,2022.67L3256.16,2022.67ZM3265.2,2087.72C3265.2,2087.72 3264.98,2088.05 3264.91,2088.28C3234.27,2190.18 3188.25,2286.74 3132.67,2377.09C3095.13,2438.11 3052.97,2496.22 3013.55,2555.79C2986.92,2596.05 2961.89,2637.04 2946,2683.68C2921.12,2756.68 2917.22,2839.33 2954.62,2908.24C2981.35,2957.51 3028.54,2995.54 3082.76,3010.36C3099.93,3015.05 3117.66,3017.35 3135.41,3017.38L3136.08,3017.38C3175.64,3017.31 3215.34,3005.97 3249.46,2984.72C3303.11,2951.29 3341.44,2896.74 3366.09,2838.8C3381.94,2801.56 3390.56,2761.6 3396.74,2721.5C3417.03,2589.89 3408.38,2453.29 3373.8,2325.51C3351.09,2241.6 3315.78,2160.5 3265.79,2088.57L3265.2,2087.72ZM1739.16,2533.34C1776.43,2533.54 1813.11,2544.2 1846.65,2561.05C1887.47,2581.57 1925.64,2607.4 1966.09,2629.43C2023.81,2660.89 2086.18,2685.34 2150.02,2697.67L2154.27,2698.99C2157.67,2700.96 2158.78,2701.22 2161.41,2704.24C2167.19,2710.9 2167.91,2721.61 2162.66,2729.05C2159.73,2733.2 2155.47,2736.2 2151.56,2739.55C2094.99,2787.91 2024.25,2819.28 1951.98,2835.58C1911.35,2844.74 1869.64,2849.78 1828.04,2849.89L1826.62,2849.89C1808.19,2849.89 1789.77,2848.91 1771.48,2846.9C1728.95,2842.21 1687.03,2829.92 1651.5,2804.73C1650.96,2804.34 1650.42,2803.96 1649.89,2803.57C1648.32,2802.43 1647.58,2801.87 1646.67,2801.19C1611.97,2774.92 1586.93,2734.99 1583.18,2691.48C1579.13,2644.55 1600.05,2596.15 1637.53,2566.6C1665.56,2544.49 1701.56,2533.54 1737.66,2533.34C1737.91,2533.34 1738.16,2533.34 1738.41,2533.34L1739.16,2533.34ZM2669.03,2326.45C2670.42,2326.98 2671.87,2327.35 2673.19,2328.03C2677.19,2330.08 2680.44,2333.48 2682.3,2337.51C2683.65,2340.42 2684.12,2343.61 2684.76,2346.76C2705.6,2450.19 2682.74,2560.71 2636.66,2655.14C2618.74,2691.87 2597.32,2727.19 2570.58,2758.12C2533.47,2801.04 2480.18,2833.89 2422.33,2834.13L2421.64,2834.13C2420.71,2834.13 2419.79,2834.12 2418.87,2834.1C2388.39,2833.54 2358.23,2823.23 2334.05,2804.83C2334.05,2804.83 2331.77,2803.08 2330.16,2801.77C2291.77,2770.33 2271.88,2718.37 2279.08,2668.16C2286.18,2618.74 2317.5,2574.27 2356.16,2543.45C2391.32,2515.44 2432.86,2495.71 2471.5,2473.47C2536.99,2435.78 2598.49,2390.83 2648.8,2332.77L2652.07,2329.75C2653.36,2329 2654.57,2328.11 2655.93,2327.52C2659.59,2325.91 2660.7,2326.15 2664.62,2325.83L2669.03,2326.45ZM1738.22,2573.62C1704.07,2573.71 1669.44,2586.67 1647.29,2612.89C1623.84,2640.65 1616.58,2681.08 1629.59,2715.58C1637.82,2737.41 1653.38,2756.04 1672.25,2770.02C1694.19,2786.26 1720.32,2796.96 1746.71,2802.37C1771.97,2807.55 1797.79,2809.65 1823.65,2809.63L1824.64,2809.63C1840.89,2809.59 1857.15,2808.71 1873.29,2807.24C1954.44,2799.87 2034.27,2775.45 2101.02,2727.97L2101.22,2727.83C2100.43,2727.62 2099.64,2727.41 2098.86,2727.2C2029.68,2708.53 1965.63,2676.78 1904.52,2640.65C1865.51,2617.6 1828.01,2591.1 1783.07,2579.57C1768.68,2575.87 1753.89,2573.7 1739.01,2573.62L1738.22,2573.62ZM2650.62,2390.1C2650.58,2390.09 2650.46,2390.17 2650.19,2390.44C2600.29,2440.49 2541.38,2480.3 2479.13,2515.49C2440.08,2537.57 2398.81,2556.53 2366.51,2588.06C2337.87,2616.01 2316.79,2653.32 2317.84,2692.75C2318.67,2723.55 2333.63,2753.7 2358.19,2772.6C2358.19,2772.6 2363.42,2776.51 2367.86,2779.17C2384.21,2788.98 2403.2,2793.67 2422.44,2793.62L2423.18,2793.61C2435.28,2793.51 2447.47,2791.53 2459.15,2787.77C2488.2,2778.44 2513.99,2760.14 2534.08,2738.51C2560.3,2710.28 2580.78,2676.92 2598.17,2642.12C2635.59,2567.25 2657.12,2483.76 2651.38,2400.39C2651.15,2397.04 2650.87,2393.7 2650.55,2390.35C2650.55,2390.35 2650.68,2390.13 2650.63,2390.1L2650.62,2390.1ZM1970.06,1455.39C1970.06,1455.39 1970.62,1458.26 1970.62,1458.26L1971.4,1462.22L1973.65,1468.8L1976.77,1475.02L1980.72,1480.75L1985.4,1485.88L1990.75,1490.34L1996.65,1494.02L1997.64,1494.53L2000.01,1495.53L2003,1496.86L2004.14,1497.26L2006.62,1497.92L2009.67,1498.82L2010.95,1499.07C2082.28,1512.85 2148.57,1542.12 2210.64,1578C2251.65,1601.69 2290.96,1628.69 2334.89,1645.83C2341.01,1648.22 2348.01,1650.54 2348.01,1650.54C2374.09,1659 2401.58,1663.85 2428.83,1663.83L2429.97,1663.83C2450.78,1663.71 2471.44,1660.75 2491.23,1654.37C2507.17,1649.24 2522.28,1641.87 2536.11,1632.65L2537.25,1633.8C2549.01,1645.68 2560.32,1658.02 2571.14,1670.8C2557.61,1680.96 2549.43,1697.79 2550.37,1714.63C2550.5,1716.97 2550.96,1719.29 2551.25,1721.62L2553.09,1728.42C2553.79,1730.47 2554.49,1732.52 2555.18,1734.57C2577.95,1802.83 2584.82,1874.01 2584.6,1945C2584.47,1988.36 2581.48,2032.72 2587.1,2076.11C2594.88,2136.21 2624.02,2197.75 2673.64,2234.16C2682.03,2240.32 2690.93,2245.67 2700.19,2250.2C2695.82,2266.37 2690.83,2282.28 2685.25,2297.91L2684.71,2299.42C2684.26,2299.23 2683.82,2299.03 2683.37,2298.85C2677.55,2296.46 2675.89,2296.49 2669.75,2295.36L2662.71,2295.05C2656.49,2295.64 2654.84,2295.47 2648.84,2297.35C2644.34,2298.75 2640.06,2300.78 2636.12,2303.36C2634.16,2304.64 2632.38,2306.2 2630.51,2307.62L2625.53,2312.61C2577.88,2367.61 2518.88,2410.68 2456.14,2446.79C2416.03,2469.88 2374.48,2489.9 2338.45,2518.21C2287.02,2558.63 2248.83,2619.66 2246.83,2684.21C2246.65,2689.79 2246.76,2695.36 2247.13,2700.91C2231.13,2705.15 2214.88,2708.78 2198.42,2711.78L2196.83,2712.07C2194.93,2695.11 2184.26,2679.62 2169.16,2671.99C2167.07,2670.93 2164.84,2670.17 2162.67,2669.26L2155.86,2667.44C2104.21,2657.47 2054.86,2639.86 2008.09,2616.62C1957.08,2591.28 1910.76,2558.81 1860.48,2533.55C1823.14,2514.78 1781.64,2502.78 1739.28,2502.55L1738.12,2502.55C1700.05,2502.66 1662.5,2513.14 1631.33,2533.3L1630.6,2533.78C1618.45,2521.57 1606.8,2508.88 1595.67,2495.74C1609.28,2485.55 1617.37,2468.72 1616.42,2451.89C1616.29,2449.55 1615.84,2447.23 1615.54,2444.9L1613.71,2438.1C1612.9,2435.76 1612.1,2433.43 1611.33,2431.08C1588.98,2363.7 1581.98,2292.19 1582.2,2221.52C1582.34,2176.75 1585.61,2130.76 1579.11,2086.05C1573,2044.04 1557.07,2002.33 1530.63,1968.75C1513.19,1946.6 1491.11,1928.78 1466.54,1916.53C1471.08,1899.71 1476.29,1883.16 1482.14,1866.92L1482.46,1867.05C1488.97,1869.81 1496.04,1871.24 1503.08,1871.27L1503.42,1871.27C1510.69,1871.24 1517.93,1869.72 1524.52,1866.61C1528.76,1864.61 1532.53,1861.75 1536.28,1858.91L1541.25,1853.92C1542.67,1852.28 1544.1,1850.65 1545.53,1849.03C1592.81,1795.7 1650.57,1754.24 1711.86,1719.03C1749.83,1697.22 1790.27,1677.43 1825.37,1650.61C1868.84,1617.38 1904.26,1569.55 1915.88,1515.61C1919.41,1499.21 1920.63,1482.33 1919.58,1465.62C1936.13,1461.23 1952.95,1457.49 1970.01,1454.43L1970.06,1455.39ZM1389.52,1928.49C1422.36,1928.81 1454.86,1940.78 1480.53,1961.47C1517.06,1990.93 1539.03,2036.51 1547.39,2082.83C1553.67,2117.58 1552.82,2153.34 1551.98,2188.86L1551.88,2193.3C1551.63,2203.66 1551.42,2213.99 1551.4,2224.26C1551.3,2299.97 1559.62,2375.91 1584.61,2448.16L1585.59,2452.5C1585.6,2456.43 1585.92,2457.52 1584.62,2461.3C1581.91,2469.18 1574,2474.78 1565.65,2474.87L1565.44,2474.88C1564.88,2474.88 1564.32,2474.85 1563.76,2474.8C1560.92,2474.54 1558.24,2473.54 1555.6,2472.66C1514.15,2458.83 1475.18,2437.86 1439.65,2411.73C1437.28,2409.98 1434.46,2407.85 1434.45,2407.84C1434.24,2407.68 1434.03,2407.53 1433.83,2407.37C1433.4,2407.04 1432.97,2406.72 1432.54,2406.39C1364.1,2354.04 1307.46,2283.14 1270.88,2205.45C1257.66,2177.37 1247.2,2148.07 1243.43,2116.59C1238.1,2071.99 1245.72,2024.91 1272.06,1988.26C1298.44,1951.56 1343.16,1928.71 1387.85,1928.48L1388.75,1928.48L1389.52,1928.49ZM1387.99,1968.76C1341.04,1969 1298.21,2003.85 1286.23,2052.77C1279.18,2081.53 1281.24,2112.41 1288.82,2139.87C1298.58,2175.26 1315.88,2208.32 1335.58,2239.62C1367.08,2289.71 1406.71,2335.15 1453.5,2371.68C1455.26,2373.05 1457.02,2374.4 1458.79,2375.75C1458.8,2375.76 1458.81,2375.77 1458.82,2375.77C1482.17,2393.53 1507.32,2408.74 1533.87,2420.87L1534.09,2420.98L1533.65,2419.32C1514.92,2349.4 1510.46,2277.13 1511.25,2205.64C1511.61,2172.82 1513.26,2139.87 1510.1,2107.23C1505.88,2063.79 1490.24,2020.12 1453.8,1991.68C1435.57,1977.46 1412.73,1969.09 1389.61,1968.77C1389.34,1968.77 1389.07,1968.76 1388.8,1968.76L1387.99,1968.76ZM2607.4,1692.62C2720.39,1729.08 2814.28,1817.72 2874.56,1920.67C2898.05,1960.78 2917.97,2003.17 2923.48,2050.95C2928.09,2090.99 2922.28,2132.89 2901.95,2167.2C2885.58,2194.84 2859.9,2216.95 2829.78,2228.52C2813.66,2234.71 2796.41,2237.79 2779.13,2237.83L2778.64,2237.83C2754.33,2237.8 2729.94,2231.76 2708.45,2219.94C2681.89,2205.33 2660.27,2182.57 2645.18,2156.12C2626.76,2123.85 2617.72,2086.86 2615.56,2049.38C2612.9,2003.23 2616.25,1957 2615.02,1910.28C2613.31,1845.06 2603.45,1779.87 2582.18,1718.36L2581.2,1714.02C2581.2,1710.09 2580.87,1709 2582.18,1705.22C2584.1,1699.64 2588.67,1694.94 2594.26,1692.88C2598.01,1691.5 2599.11,1691.8 2603.04,1691.72L2607.4,1692.62ZM2632.76,1745.45C2632.71,1745.45 2632.71,1745.57 2632.82,1746C2651.49,1815.3 2656.3,1887.07 2655.57,1959.48C2655.1,2004.79 2650.8,2049.91 2663.3,2094.93C2673.01,2129.87 2692.32,2163.11 2723.67,2182.22C2740.32,2192.37 2759.8,2197.64 2779.22,2197.58L2779.95,2197.57C2791.36,2197.46 2802.74,2195.5 2813.49,2191.61C2847.78,2179.2 2873.16,2147.41 2881.26,2110.73C2888.68,2077.16 2883.87,2041.55 2872.8,2010.33C2857.79,1967.98 2834.57,1928.7 2807.62,1892.39C2763.53,1833 2707.28,1781.63 2641.13,1749.51C2638.41,1748.18 2635.68,1746.9 2632.93,1745.64C2632.93,1745.64 2632.82,1745.47 2632.77,1745.45L2632.76,1745.45ZM1030.69,1108.77C1107.92,1109.17 1183.18,1147.46 1229.24,1210.43C1263.89,1257.8 1280.74,1317.25 1280.26,1376.35C1279.81,1432.28 1265.31,1488.12 1241.95,1538.21C1213.78,1598.64 1173.49,1652.88 1135.49,1708.34C1082.62,1785.56 1032.31,1864.78 993.307,1949.84C966.925,2007.37 945.451,2067.49 929.627,2128.15L929.395,2129.05C927.993,2132.72 927.908,2133.85 925.338,2136.92C921.564,2141.42 915.785,2143.85 909.971,2143.92L909.729,2143.92C905.288,2143.92 900.841,2142.54 897.267,2139.66C895.287,2138.07 893.754,2136.04 892.221,2134.09C890.313,2131.67 888.421,2129.23 886.545,2126.78C837.166,2062.3 799.584,1989.36 772.789,1912.6C772.789,1912.6 771.866,1909.92 770.89,1907.07C731.409,1790.91 715.256,1666.27 720.25,1543.05C722.929,1476.94 730.941,1410.71 750.559,1347.63C768.999,1288.34 800.584,1232.37 844.616,1188.6C892.674,1140.83 958.287,1109.86 1025.96,1108.8C1027.14,1108.78 1028.33,1108.77 1029.51,1108.77L1030.69,1108.77ZM1029.23,1149.04C967.93,1149.32 908.705,1178.76 866.02,1224.37C827.989,1265 801.529,1315.78 786.346,1368.53C770.259,1424.41 763.217,1482.79 760.642,1541.2C755.311,1662.1 770.967,1784.6 810.832,1899.35L810.847,1899.41C833.04,1962.99 863.366,2024.32 901.462,2078.97L901.541,2079.08L901.904,2077.87C932.773,1975.33 978.728,1879.23 1034.74,1788.37C1071.92,1728.08 1113.51,1670.75 1153.12,1610.89C1180.42,1569.63 1206.05,1527.2 1221.8,1479.67C1242.72,1416.49 1247.86,1346.74 1224.21,1284.88C1207.78,1241.9 1177.46,1204.35 1138.46,1180.12C1106.27,1160.12 1068.77,1149.25 1030.55,1149.05L1029.23,1149.04ZM1745.95,1332.39C1791.5,1332.72 1836.21,1355.2 1862.84,1392.9C1886.78,1426.79 1894.7,1471.33 1885.11,1512.1C1874.42,1557.54 1843.77,1597.66 1807.12,1625.8C1772.98,1652.02 1733.5,1671.1 1696.53,1692.34C1632.3,1729.23 1571.77,1773.01 1522.49,1828.61C1520.98,1830.31 1519.48,1832.03 1517.99,1833.75L1514.72,1836.77C1511.32,1838.74 1510.54,1839.56 1506.61,1840.33C1505.51,1840.54 1504.4,1840.65 1503.29,1840.67L1503.09,1840.67C1495.39,1840.69 1487.79,1836.13 1484.5,1829.01C1483.07,1825.92 1482.59,1822.53 1481.92,1819.19C1459.28,1705.82 1487.94,1585.82 1543.98,1484.77C1567.86,1441.72 1596.23,1400.71 1636.08,1371.36C1667.27,1348.38 1704.7,1332.88 1743.44,1332.39C1744.1,1332.39 1744.76,1332.38 1745.42,1332.38L1745.95,1332.39ZM2739.11,1019.24C2900.88,1019.91 3060.56,1071.88 3200.42,1153.38C3260.06,1188.13 3316.88,1228.24 3366.27,1275.98C3411.27,1319.47 3448.02,1372.27 3469.18,1431.15C3486.85,1480.3 3492.62,1534.14 3481.97,1585.08C3468.25,1650.74 3426.58,1710.2 3369.1,1745.26C3330.15,1769.01 3284.58,1781.34 3238.9,1781.5L3238.2,1781.5C3224.76,1781.51 3211.31,1780.46 3198.01,1778.33C3143.77,1769.67 3092.98,1743.81 3050.57,1708.43C3027.77,1689.41 3007.26,1667.68 2988.86,1644.43C2988.86,1644.43 2986,1640.78 2983.55,1637.52C2940.17,1579.7 2911.67,1511.94 2880.91,1447.72C2840.78,1364.05 2797.52,1281.61 2743.95,1206.11C2707.4,1154.6 2666.41,1106.22 2621.39,1061.8L2620.73,1061.15L2619.93,1060.16L2618.8,1058.98L2617.92,1057.69L2617.38,1056.61L2616.58,1055.27L2615.94,1053.7L2615.67,1052.58L2615.19,1051.18L2614.89,1049.37L2614.87,1048.28L2614.71,1046.88L2614.81,1044.92L2615.02,1043.89L2615.16,1042.58L2615.72,1040.56L2616.13,1039.65C2616.13,1039.65 2616.52,1038.47 2616.52,1038.47L2618.7,1034.77L2621.61,1031.63L2625.13,1029.17L2629.08,1027.51L2630.69,1027.21C2630.69,1027.21 2631.91,1026.88 2631.91,1026.88C2665.86,1021.86 2700.7,1019.33 2735.19,1019.24C2735.86,1019.24 2736.53,1019.24 2737.2,1019.24L2739.11,1019.24ZM1745.2,1372.66C1745,1372.66 1744.81,1372.66 1744.61,1372.66C1705.85,1372.91 1667.84,1393.9 1640.92,1419.64C1621.64,1438.08 1605.91,1460.14 1591.73,1482.97C1553.49,1544.52 1527.6,1613.96 1518.16,1685.63C1514.21,1715.61 1513.38,1746.04 1516.25,1776.16L1516.27,1776.41L1517.13,1775.55C1517.42,1775.26 1517.71,1774.97 1518,1774.68C1568.35,1724.52 1627.71,1684.83 1690.12,1649.64C1732.54,1625.73 1777.02,1605.33 1810.3,1567.99C1834.87,1540.43 1851.78,1504.61 1848.6,1467.45C1845.26,1428.4 1818.57,1392.28 1780.83,1378.77C1769.61,1374.76 1757.85,1372.75 1745.78,1372.66L1745.2,1372.66ZM2737.17,1059.52C2736.53,1059.52 2735.9,1059.52 2735.27,1059.52C2716.18,1059.56 2697.14,1060.38 2678.07,1062.01L2677.93,1062.02C2751.78,1140.35 2812.62,1229.04 2863.74,1323.99C2897.78,1387.24 2926.98,1452.95 2959.06,1516.95C2976.95,1552.66 2995.89,1588.24 3020.47,1619.45L3020.51,1619.51C3060.9,1670.56 3113.04,1713.89 3176.39,1732.28C3196.4,1738.08 3217.22,1741 3238,1741.01L3238.7,1741.01C3277.47,1740.91 3316.11,1730.68 3349.23,1710.19C3387.94,1686.24 3418.32,1649.19 3434.1,1606.33C3451.11,1560.11 3450.37,1507.91 3436.6,1461.04C3420.89,1407.62 3390.32,1358.98 3352.87,1319.62C3302.96,1267.17 3242.71,1224.64 3180.15,1188.19C3106.91,1145.51 3028.61,1111.79 2947.13,1089.27C2879.3,1070.53 2808.85,1059.8 2738.82,1059.52L2737.17,1059.52ZM2342.54,1316.8C2388.02,1316.91 2434.28,1321.57 2476.26,1339.93C2514.66,1356.72 2549.15,1384.37 2568.19,1421.58C2587.2,1458.74 2589.2,1504.31 2572.81,1542.98C2553.89,1587.61 2511.54,1620.6 2462.37,1630.03C2451.52,1632.11 2440.48,1633.09 2429.42,1633.13L2428.59,1633.13C2404.51,1633.12 2380.3,1628.65 2357.51,1621.25C2357.51,1621.25 2356.57,1620.94 2355.92,1620.72C2317.45,1607.78 2283.1,1585.1 2247.69,1564.04C2193.58,1531.92 2137.63,1502.56 2077.52,1484C2057.55,1477.84 2037.2,1472.79 2016.78,1468.85L2012.53,1467.52L2009.18,1465.59L2007.61,1464.32L2005.85,1462.7L2003.55,1459.8L2002.87,1458.61L2002.34,1457.31L2001.63,1455.85L2001.2,1454.48L2000.98,1453.11C2000.98,1453.11 2000.61,1451.57 2000.61,1451.57L2000.49,1450.09L2000.56,1448.87L2000.53,1447.34L2000.76,1445.64L2001.07,1444.56L2001.33,1443.19L2002,1441.36L2002.5,1440.46L2002.99,1439.3L2005.41,1435.84L2006.38,1434.94L2007.1,1434.13C2079.89,1368.35 2177.3,1332.32 2273.69,1320.86C2295.94,1318.21 2318.34,1316.84 2340.8,1316.8L2342.54,1316.8ZM2340.86,1357.07C2247.25,1357.28 2152.49,1380.65 2075.74,1431.69C2072.38,1433.92 2069.07,1436.21 2065.78,1438.55L2065.59,1438.69C2134.81,1457.02 2201.09,1489.7 2262.27,1525.87C2296.52,1546.11 2329.39,1569 2367.47,1582.11C2368.47,1582.45 2369.94,1582.94 2370.01,1582.96C2388.64,1589.13 2408.56,1592.83 2428.25,1592.83L2428.74,1592.83C2451.23,1592.76 2473.38,1587.82 2492.89,1576.17C2521.39,1559.15 2541.13,1528.13 2543.59,1494.76C2545.98,1462.38 2531.59,1429.96 2507.48,1407.29C2480.35,1381.75 2443.63,1367.65 2407.76,1361.92C2386.01,1358.44 2363.92,1357.1 2341.9,1357.07L2340.86,1357.07ZM2147.31,551.338C2219.01,551.77 2291.54,572.26 2346.14,618.586C2402.04,666.008 2435.33,738.879 2433.4,813.185C2431.89,871.403 2408.83,928.675 2370.47,972.657C2344.18,1002.79 2311.13,1026.85 2275.03,1044.33C2231.64,1065.34 2183.7,1077.58 2136.7,1081.93C2120.03,1083.47 2103.31,1084.13 2086.56,1084.18L2085.04,1084.18C2037.33,1084.21 1989.37,1079.3 1941.67,1075.57C1883.97,1071.09 1826,1067.67 1768.13,1067.62L1765.91,1067.62C1729.56,1067.65 1693.25,1069.02 1657.09,1072.32C1592.8,1078.17 1529.19,1089.63 1466.78,1106.86L1462.38,1107.56C1458.46,1107.31 1457.35,1107.57 1453.66,1106.03C1445.55,1102.64 1440.12,1093.34 1441.52,1084.34C1441.91,1081.83 1442.91,1079.49 1443.83,1077.19C1489.95,961.719 1568.09,859.314 1662.08,775.845C1748.12,699.43 1846.82,636.864 1954.15,593.449C2001.8,574.173 2051.15,558.513 2102.65,553.469C2117.21,552.043 2131.91,551.317 2146.47,551.334L2147.31,551.338ZM2145.87,591.612C2145.38,591.611 2144.89,591.611 2144.4,591.612C2078.48,591.883 2012.59,611.705 1950.03,638.846C1840.01,686.577 1739.09,754.587 1653.65,838.873C1589.53,902.131 1534.91,974.972 1496.18,1057.62L1496.12,1057.75L1497.34,1057.46C1587.37,1036.27 1680.3,1027.15 1773.11,1027.16L1775.63,1027.16C1789.06,1027.19 1802.5,1027.41 1815.92,1027.81C1886.68,1029.91 1957.12,1037.24 2027.38,1041.53C2046.77,1042.71 2066.14,1043.58 2085.52,1043.58L2086.71,1043.58C2117.56,1043.52 2148.43,1041.24 2179.41,1034.51C2230.07,1023.51 2279.27,1002.79 2319.14,967.33C2369.9,922.204 2399.31,853.367 2392.05,784.924C2385.47,722.87 2349.32,665.28 2295.43,631.21C2251.82,603.635 2199.18,591.953 2147.35,591.616L2145.87,591.612Z" style="fill:rgb(254,255,254);"/>
</svg>
