<?xml version="1.0" encoding="UTF-8" standalone="no"?><!DOCTYPE svg PUBLIC "-//W3C//DTD SVG 1.1//EN" "http://www.w3.org/Graphics/SVG/1.1/DTD/svg11.dtd"><svg width="100%" height="100%" viewBox="0 0 100 100" version="1.1" xmlns="http://www.w3.org/2000/svg" xmlns:xlink="http://www.w3.org/1999/xlink" xml:space="preserve" xmlns:serif="http://www.serif.com/" style="fill-rule:evenodd;clip-rule:evenodd;stroke-linejoin:round;stroke-miterlimit:2;"><path d="M87.162,44.388c-1.31,-0.708 -12.545,-7.227 -16.76,-9.681l-0.012,-0.008l-51.063,-29.48c-1.759,-1.074 -3.907,-1.317 -5.862,-0.663c-0.11,0.039 -0.212,0.078 -0.318,0.127c-0.246,0.08 -0.487,0.176 -0.721,0.288c-1.986,1.187 -3.168,3.373 -3.076,5.684l0,79.106c-0.063,2.153 1.042,4.18 2.885,5.294c0.209,0.102 0.425,0.191 0.645,0.265c0.121,0.056 0.236,0.105 0.36,0.148c0.597,0.217 1.225,0.333 1.86,0.344c1.218,-0.013 2.413,-0.346 3.463,-0.965c1.619,-0.94 51.827,-29.927 51.827,-29.927l16.752,-9.672c2.107,-1.056 3.461,-3.202 3.507,-5.559c-0.104,-2.269 -1.444,-4.307 -3.487,-5.301Zm-69.478,38.275l-0,-65.572l33.083,32.746l-33.083,32.826Zm20.908,-9.007l18.098,-17.957l4.79,4.741c-5.27,3.043 -14.172,8.183 -22.888,13.216l-0,-0Zm18.091,-29.688l-18.325,-18.137l23.141,13.359l-4.816,4.778Zm12.278,12.153l-6.356,-6.291l6.366,-6.316c3.001,1.743 7.678,4.456 10.899,6.31l-10.909,6.297Z" style="fill:#fefefe;fill-rule:nonzero;"/></svg>