<?xml version="1.0" encoding="UTF-8" standalone="no"?><!DOCTYPE svg PUBLIC "-//W3C//DTD SVG 1.1//EN" "http://www.w3.org/Graphics/SVG/1.1/DTD/svg11.dtd"><svg width="100%" height="100%" viewBox="0 0 200 200" version="1.1" xmlns="http://www.w3.org/2000/svg" xmlns:xlink="http://www.w3.org/1999/xlink" xml:space="preserve" xmlns:serif="http://www.serif.com/" style="fill-rule:evenodd;clip-rule:evenodd;stroke-linejoin:round;stroke-miterlimit:2;"><path d="M180,141.25c-1.667,8.75 -8.75,15.417 -17.5,16.667c-13.75,2.083 -36.667,4.583 -62.5,4.583c-25.417,0 -48.333,-2.5 -62.5,-4.583c-8.75,-1.25 -15.833,-7.917 -17.5,-16.667c-1.667,-9.583 -3.333,-23.75 -3.333,-41.25c0,-17.5 1.666,-31.667 3.333,-41.25c1.667,-8.75 8.75,-15.417 17.5,-16.667c13.75,-2.083 36.667,-4.583 62.5,-4.583c25.833,0 48.333,2.5 62.5,4.583c8.75,1.25 15.833,7.917 17.5,16.667c1.667,9.583 3.75,23.75 3.75,41.25c-0.417,17.5 -2.083,31.667 -3.75,41.25Z" style="fill:url(#_Linear1);fill-rule:nonzero;"/><path d="M83.333,129.167l0,-58.334l50,29.167l-50,29.167Z" style="fill:#fff;fill-rule:nonzero;"/><defs><linearGradient id="_Linear1" x1="0" y1="0" x2="1" y2="0" gradientUnits="userSpaceOnUse" gradientTransform="matrix(188.556,-151.459,151.459,188.556,11.4439,172.657)"><stop offset="0" style="stop-color:#4c008f;stop-opacity:1"/><stop offset="0.58" style="stop-color:#0c55c1;stop-opacity:1"/><stop offset="1" style="stop-color:#00a6df;stop-opacity:1"/></linearGradient></defs></svg>